<?xml version="1.0" encoding="UTF-8" standalone="no"?>
<!-- Generator: Adobe Illustrator 16.0.0, SVG Export Plug-In . SVG Version: 6.00 Build 0)  -->

<svg
   xmlns:dc="http://purl.org/dc/elements/1.1/"
   xmlns:cc="http://creativecommons.org/ns#"
   xmlns:rdf="http://www.w3.org/1999/02/22-rdf-syntax-ns#"
   xmlns:svg="http://www.w3.org/2000/svg"
   xmlns="http://www.w3.org/2000/svg"
   xmlns:xlink="http://www.w3.org/1999/xlink"
   xmlns:sodipodi="http://sodipodi.sourceforge.net/DTD/sodipodi-0.dtd"
   xmlns:inkscape="http://www.inkscape.org/namespaces/inkscape"
   version="1.1"
   id="Capa_1"
   x="0px"
   y="0px"
   width="262.365px"
   height="119.354px"
   viewBox="0 0 262.365 119.354"
   enable-background="new 0 0 262.365 119.354"
   xml:space="preserve"
   inkscape:version="0.91 r13725"
   sodipodi:docname="logo_white.svg"><metadata
     id="metadata3693"><rdf:RDF><cc:Work
         rdf:about=""><dc:format>image/svg+xml</dc:format><dc:type
           rdf:resource="http://purl.org/dc/dcmitype/StillImage" /></cc:Work></rdf:RDF></metadata><defs
     id="defs3691"><defs
       id="defs3359"><rect
         id="SVGID_5_"
         x="29.451"
         y="35.109001"
         width="204.177"
         height="52.569" /></defs><clipPath
       id="SVGID_6_"><use
         xlink:href="#SVGID_5_"
         overflow="visible"
         id="use3363"
         style="overflow:visible"
         x="0"
         y="0"
         width="100%"
         height="100%" /></clipPath><defs
       id="defs3367"><rect
         height="547.086"
         width="307.5"
         y="-66.614998"
         x="-21.799"
         id="SVGID_7_" /></defs><clipPath
       id="SVGID_8_"><use
         height="100%"
         width="100%"
         y="0"
         x="0"
         style="overflow:visible"
         id="use3371"
         overflow="visible"
         xlink:href="#SVGID_7_" /></clipPath><defs
       id="defs3377"><rect
         height="52.999001"
         width="204.146"
         y="35.109001"
         x="29.451"
         id="SVGID_9_" /></defs><clipPath
       id="SVGID_10_"><use
         height="100%"
         width="100%"
         y="0"
         x="0"
         style="overflow:visible"
         id="use3381"
         overflow="visible"
         xlink:href="#SVGID_9_" /></clipPath></defs><sodipodi:namedview
     pagecolor="#ffffff"
     bordercolor="#666666"
     borderopacity="1"
     objecttolerance="10"
     gridtolerance="10"
     guidetolerance="10"
     inkscape:pageopacity="0"
     inkscape:pageshadow="2"
     inkscape:window-width="2048"
     inkscape:window-height="1115"
     id="namedview3689"
     showgrid="false"
     inkscape:zoom="5.3856271"
     inkscape:cx="131.1825"
     inkscape:cy="59.676998"
     inkscape:window-x="1920"
     inkscape:window-y="0"
     inkscape:window-maximized="1"
     inkscape:current-layer="Capa_1" /><g
     id="g3339"><defs
       id="defs3341"><path
         inkscape:connector-curvature="0"
         d="m 97.221,36.61 c -2.988,0 -5.339,0.956 -7.057,2.87 -1.717,1.914 -2.574,4.534 -2.574,7.861 0,3.403 0.809,6.045 2.427,7.926 1.62,1.881 3.934,2.821 6.943,2.821 1.999,0 3.836,-0.255 5.51,-0.766 l 0,1.468 c -1.576,0.555 -3.542,0.832 -5.901,0.832 -3.347,0 -5.981,-1.082 -7.904,-3.245 -1.923,-2.165 -2.884,-5.188 -2.884,-9.069 0,-2.424 0.459,-4.561 1.376,-6.41 0.918,-1.849 2.239,-3.275 3.96,-4.281 1.722,-1.005 3.724,-1.509 6.006,-1.509 2.323,0 4.405,0.435 6.241,1.305 l -0.668,1.5 C 100.958,37.045 99.133,36.61 97.221,36.61 Z"
         id="SVGID_1_" /></defs><clipPath
       id="SVGID_2_"><use
         height="100%"
         width="100%"
         y="0"
         x="0"
         style="overflow:visible"
         id="use3345"
         overflow="visible"
         xlink:href="#SVGID_1_" /></clipPath><g
       id="g3347"
       clip-path="url(#SVGID_2_)"><defs
         id="defs3349"><rect
           height="547.086"
           width="307.5"
           y="-66.614998"
           x="-21.799"
           id="SVGID_3_" /></defs><clipPath
         id="SVGID_4_"><use
           height="100%"
           width="100%"
           y="0"
           x="0"
           style="overflow:visible"
           id="use3353"
           overflow="visible"
           xlink:href="#SVGID_3_" /></clipPath><rect
         style="fill:#ffffff"
         id="rect3355"
         height="33.062"
         width="26.125"
         clip-path="url(#SVGID_4_)"
         y="30.834999"
         x="81.510002" /></g></g><g
     id="g3383"
     clip-path="url(#SVGID_10_)"><defs
       id="defs3385"><rect
         height="23.846001"
         width="1.6619999"
         y="35.451"
         x="107.782"
         id="SVGID_11_" /></defs><clipPath
       id="SVGID_12_"><use
         height="100%"
         width="100%"
         y="0"
         x="0"
         style="overflow:visible"
         id="use3389"
         overflow="visible"
         xlink:href="#SVGID_11_" /></clipPath><g
       id="g3391"
       clip-path="url(#SVGID_12_)"><defs
         id="defs3393"><rect
           height="52.999001"
           width="204.146"
           y="35.109001"
           x="29.451"
           id="SVGID_13_" /></defs><clipPath
         id="SVGID_14_"><use
           height="100%"
           width="100%"
           y="0"
           x="0"
           style="overflow:visible"
           id="use3397"
           overflow="visible"
           xlink:href="#SVGID_13_" /></clipPath><rect
         style="fill:#ffffff"
         id="rect3399"
         height="32.394001"
         width="10.204"
         clip-path="url(#SVGID_14_)"
         y="31.177"
         x="103.511" /></g></g><g
     id="g3401"
     clip-path="url(#SVGID_10_)"><defs
       id="defs3403"><path
         inkscape:connector-curvature="0"
         d="m 117.853,48.907 0,10.389 -1.662,0 0,-23.845 5.671,0 c 2.955,0 5.139,0.546 6.551,1.639 1.412,1.094 2.118,2.738 2.118,4.935 0,1.598 -0.421,2.946 -1.263,4.044 -0.841,1.099 -2.121,1.887 -3.837,2.364 l 6.469,10.863 -1.987,0 -6.145,-10.389 -5.915,0 z m 0,-1.436 4.547,0 c 2.011,0 3.569,-0.448 4.678,-1.345 1.108,-0.897 1.662,-2.221 1.662,-3.972 0,-1.816 -0.544,-3.137 -1.63,-3.963 -1.086,-0.826 -2.858,-1.24 -5.313,-1.24 l -3.944,0 0,10.52 z"
         id="SVGID_15_" /></defs><clipPath
       id="SVGID_16_"><use
         height="100%"
         width="100%"
         y="0"
         x="0"
         style="overflow:visible"
         id="use3407"
         overflow="visible"
         xlink:href="#SVGID_15_" /></clipPath><g
       id="g3409"
       clip-path="url(#SVGID_16_)"><defs
         id="defs3411"><rect
           height="52.999001"
           width="204.146"
           y="35.109001"
           x="29.451"
           id="SVGID_17_" /></defs><clipPath
         id="SVGID_18_"><use
           height="100%"
           width="100%"
           y="0"
           x="0"
           style="overflow:visible"
           id="use3415"
           overflow="visible"
           xlink:href="#SVGID_17_" /></clipPath><rect
         style="fill:#ffffff"
         id="rect3417"
         height="32.393002"
         width="24.250999"
         clip-path="url(#SVGID_18_)"
         y="31.177"
         x="111.92" /></g></g><g
     id="g3419"
     clip-path="url(#SVGID_10_)"><defs
       id="defs3421"><path
         inkscape:connector-curvature="0"
         d="m 146.193,36.61 c -2.988,0 -5.339,0.956 -7.057,2.87 -1.717,1.914 -2.574,4.534 -2.574,7.861 0,3.403 0.809,6.045 2.428,7.926 1.619,1.881 3.934,2.821 6.943,2.821 1.998,0 3.835,-0.255 5.509,-0.766 l 0,1.468 c -1.576,0.555 -3.542,0.832 -5.901,0.832 -3.347,0 -5.98,-1.082 -7.902,-3.245 -1.924,-2.165 -2.885,-5.188 -2.885,-9.069 0,-2.424 0.459,-4.561 1.376,-6.41 0.919,-1.849 2.239,-3.275 3.961,-4.281 1.722,-1.005 3.724,-1.509 6.006,-1.509 2.324,0 4.405,0.435 6.241,1.305 l -0.668,1.5 c -1.738,-0.868 -3.565,-1.303 -5.477,-1.303"
         id="SVGID_19_" /></defs><clipPath
       id="SVGID_20_"><use
         height="100%"
         width="100%"
         y="0"
         x="0"
         style="overflow:visible"
         id="use3425"
         overflow="visible"
         xlink:href="#SVGID_19_" /></clipPath><g
       id="g3427"
       clip-path="url(#SVGID_20_)"><defs
         id="defs3429"><rect
           height="52.999001"
           width="204.146"
           y="35.109001"
           x="29.451"
           id="SVGID_21_" /></defs><clipPath
         id="SVGID_22_"><use
           height="100%"
           width="100%"
           y="0"
           x="0"
           style="overflow:visible"
           id="use3433"
           overflow="visible"
           xlink:href="#SVGID_21_" /></clipPath><rect
         style="fill:#ffffff"
         id="rect3435"
         height="33.062"
         width="26.125"
         clip-path="url(#SVGID_22_)"
         y="30.834999"
         x="130.483" /></g></g><g
     id="g3437"
     clip-path="url(#SVGID_10_)"><defs
       id="defs3439"><path
         inkscape:connector-curvature="0"
         d="m 174.274,35.451 0,15.429 c 0,2.741 -0.794,4.883 -2.38,6.427 -1.588,1.544 -3.796,2.316 -6.633,2.316 -2.76,0 -4.914,-0.775 -6.463,-2.325 -1.548,-1.549 -2.322,-3.71 -2.322,-6.483 l 0,-15.364 1.68,0 0,15.429 c 0,2.295 0.636,4.081 1.906,5.358 1.272,1.277 3.069,1.916 5.395,1.916 2.271,0 4.031,-0.628 5.28,-1.883 1.25,-1.256 1.874,-2.999 1.874,-5.228 l 0,-15.592 1.663,0 z"
         id="SVGID_23_" /></defs><clipPath
       id="SVGID_24_"><use
         height="100%"
         width="100%"
         y="0"
         x="0"
         style="overflow:visible"
         id="use3443"
         overflow="visible"
         xlink:href="#SVGID_23_" /></clipPath><g
       id="g3445"
       clip-path="url(#SVGID_24_)"><defs
         id="defs3447"><rect
           height="52.999001"
           width="204.146"
           y="35.109001"
           x="29.451"
           id="SVGID_25_" /></defs><clipPath
         id="SVGID_26_"><use
           height="100%"
           width="100%"
           y="0"
           x="0"
           style="overflow:visible"
           id="use3451"
           overflow="visible"
           xlink:href="#SVGID_25_" /></clipPath><rect
         style="fill:#ffffff"
         id="rect3453"
         height="32.719002"
         width="26.339001"
         clip-path="url(#SVGID_26_)"
         y="31.177"
         x="152.20599" /></g></g><g
     id="g3455"
     clip-path="url(#SVGID_10_)"><defs
       id="defs3457"><polygon
         points="193.781,57.73 193.781,59.296 180.761,59.296 180.761,35.451 182.422,35.451 182.422,57.73 "
         id="SVGID_27_" /></defs><clipPath
       id="SVGID_28_"><use
         height="100%"
         width="100%"
         y="0"
         x="0"
         style="overflow:visible"
         id="use3461"
         overflow="visible"
         xlink:href="#SVGID_27_" /></clipPath><g
       id="g3463"
       clip-path="url(#SVGID_28_)"><defs
         id="defs3465"><rect
           height="52.999001"
           width="204.146"
           y="35.109001"
           x="29.451"
           id="SVGID_29_" /></defs><clipPath
         id="SVGID_30_"><use
           height="100%"
           width="100%"
           y="0"
           x="0"
           style="overflow:visible"
           id="use3469"
           overflow="visible"
           xlink:href="#SVGID_29_" /></clipPath><rect
         style="fill:#ffffff"
         id="rect3471"
         height="32.393002"
         width="21.563"
         clip-path="url(#SVGID_30_)"
         y="31.177"
         x="176.489" /></g></g><g
     id="g3473"
     clip-path="url(#SVGID_10_)"><defs
       id="defs3475"><path
         inkscape:connector-curvature="0"
         d="m 209.362,50.88 -9.682,0 -3.325,8.417 -1.841,0 9.583,-23.943 1.06,0 9.387,23.943 -1.874,0 -3.308,-8.417 z m -9.078,-1.5 8.523,0 -3.243,-8.595 c -0.271,-0.673 -0.599,-1.608 -0.979,-2.805 -0.292,1.043 -0.614,1.989 -0.961,2.837 l -3.34,8.563 z"
         id="SVGID_31_" /></defs><clipPath
       id="SVGID_32_"><use
         height="100%"
         width="100%"
         y="0"
         x="0"
         style="overflow:visible"
         id="use3479"
         overflow="visible"
         xlink:href="#SVGID_31_" /></clipPath><g
       id="g3481"
       clip-path="url(#SVGID_32_)"><defs
         id="defs3483"><rect
           height="52.999001"
           width="204.146"
           y="35.109001"
           x="29.451"
           id="SVGID_33_" /></defs><clipPath
         id="SVGID_34_"><use
           height="100%"
           width="100%"
           y="0"
           x="0"
           style="overflow:visible"
           id="use3487"
           overflow="visible"
           xlink:href="#SVGID_33_" /></clipPath><rect
         style="fill:#ffffff"
         id="rect3489"
         height="32.491001"
         width="28.57"
         clip-path="url(#SVGID_34_)"
         y="31.08"
         x="190.244" /></g></g><g
     id="g3491"
     clip-path="url(#SVGID_10_)"><defs
       id="defs3493"><path
         inkscape:connector-curvature="0"
         d="m 219.58,48.907 0,10.389 -1.662,0 0,-23.845 5.671,0 c 2.955,0 5.139,0.546 6.552,1.639 1.413,1.094 2.118,2.738 2.118,4.935 0,1.598 -0.42,2.946 -1.263,4.044 -0.842,1.099 -2.122,1.887 -3.839,2.364 l 6.47,10.863 -1.986,0 -6.145,-10.389 -5.916,0 z m 0,-1.436 4.546,0 c 2.011,0 3.569,-0.448 4.678,-1.345 1.108,-0.897 1.662,-2.221 1.662,-3.972 0,-1.816 -0.544,-3.137 -1.629,-3.963 -1.087,-0.826 -2.858,-1.24 -5.312,-1.24 l -3.944,0 0,10.52 z"
         id="SVGID_35_" /></defs><clipPath
       id="SVGID_36_"><use
         height="100%"
         width="100%"
         y="0"
         x="0"
         style="overflow:visible"
         id="use3497"
         overflow="visible"
         xlink:href="#SVGID_35_" /></clipPath><g
       id="g3499"
       clip-path="url(#SVGID_36_)"><defs
         id="defs3501"><rect
           height="52.999001"
           width="204.146"
           y="35.109001"
           x="29.451"
           id="SVGID_37_" /></defs><clipPath
         id="SVGID_38_"><use
           height="100%"
           width="100%"
           y="0"
           x="0"
           style="overflow:visible"
           id="use3505"
           overflow="visible"
           xlink:href="#SVGID_37_" /></clipPath><rect
         style="fill:#ffffff"
         id="rect3507"
         height="32.393002"
         width="24.252001"
         clip-path="url(#SVGID_38_)"
         y="31.177"
         x="213.646" /></g></g><g
     id="g3509"
     clip-path="url(#SVGID_10_)"><defs
       id="defs3511"><path
         inkscape:connector-curvature="0"
         d="m 110.775,87.352 -5.753,0 -3.228,-12.526 c -0.119,-0.445 -0.323,-1.367 -0.61,-2.764 -0.288,-1.396 -0.454,-2.335 -0.497,-2.813 -0.065,0.587 -0.228,1.53 -0.488,2.829 -0.262,1.3 -0.462,2.227 -0.604,2.781 l -3.21,12.493 -5.736,0 -6.079,-23.845 4.971,0 3.048,13.015 c 0.532,2.403 0.917,4.485 1.156,6.247 0.065,-0.619 0.214,-1.579 0.449,-2.878 0.233,-1.3 0.454,-2.308 0.659,-3.025 l 3.471,-13.358 4.776,0 3.471,13.358 c 0.152,0.598 0.343,1.511 0.57,2.74 0.229,1.229 0.402,2.283 0.522,3.164 0.108,-0.848 0.283,-1.905 0.521,-3.172 0.239,-1.267 0.457,-2.292 0.651,-3.075 l 3.031,-13.015 4.972,0 -6.063,23.844 z"
         id="SVGID_39_" /></defs><clipPath
       id="SVGID_40_"><use
         height="100%"
         width="100%"
         y="0"
         x="0"
         style="overflow:visible"
         id="use3515"
         overflow="visible"
         xlink:href="#SVGID_39_" /></clipPath><g
       id="g3517"
       clip-path="url(#SVGID_40_)"><defs
         id="defs3519"><rect
           height="52.999001"
           width="204.146"
           y="35.109001"
           x="29.451"
           id="SVGID_41_" /></defs><clipPath
         id="SVGID_42_"><use
           height="100%"
           width="100%"
           y="0"
           x="0"
           style="overflow:visible"
           id="use3523"
           overflow="visible"
           xlink:href="#SVGID_41_" /></clipPath><rect
         style="fill:#ffffff"
         id="rect3525"
         height="32.393002"
         width="40.811001"
         clip-path="url(#SVGID_42_)"
         y="59.233002"
         x="80.297997" /></g></g><g
     id="g3527"
     clip-path="url(#SVGID_10_)"><defs
       id="defs3529"><path
         inkscape:connector-curvature="0"
         d="m 141.462,75.396 c 0,3.947 -0.978,6.98 -2.933,9.101 -1.956,2.12 -4.76,3.181 -8.41,3.181 -3.65,0 -6.455,-1.061 -8.411,-3.181 -1.955,-2.121 -2.932,-5.164 -2.932,-9.133 0,-3.969 0.98,-6.999 2.941,-9.093 1.962,-2.093 4.773,-3.14 8.434,-3.14 3.662,0 6.463,1.055 8.401,3.165 1.941,2.109 2.91,5.143 2.91,9.1 m -17.388,0 c 0,2.665 0.505,4.67 1.514,6.019 1.011,1.348 2.521,2.022 4.532,2.022 4.031,0 6.045,-2.68 6.045,-8.041 0,-5.371 -2.003,-8.056 -6.014,-8.056 -2.008,0 -3.526,0.677 -4.546,2.03 -1.021,1.355 -1.531,3.363 -1.531,6.026"
         id="SVGID_43_" /></defs><clipPath
       id="SVGID_44_"><use
         height="100%"
         width="100%"
         y="0"
         x="0"
         style="overflow:visible"
         id="use3533"
         overflow="visible"
         xlink:href="#SVGID_43_" /></clipPath><g
       id="g3535"
       clip-path="url(#SVGID_44_)"><defs
         id="defs3537"><rect
           height="52.999001"
           width="204.146"
           y="35.109001"
           x="29.451"
           id="SVGID_45_" /></defs><clipPath
         id="SVGID_46_"><use
           height="100%"
           width="100%"
           y="0"
           x="0"
           style="overflow:visible"
           id="use3541"
           overflow="visible"
           xlink:href="#SVGID_45_" /></clipPath><rect
         style="fill:#ffffff"
         id="rect3543"
         height="33.094002"
         width="31.228001"
         clip-path="url(#SVGID_46_)"
         y="58.858002"
         x="114.506" /></g></g><g
     id="g3545"
     clip-path="url(#SVGID_10_)"><defs
       id="defs3547"><path
         inkscape:connector-curvature="0"
         d="m 151.452,78.202 0,9.15 -5.052,0 0,-23.845 6.942,0 c 3.237,0 5.633,0.59 7.188,1.769 1.554,1.181 2.329,2.972 2.329,5.374 0,1.403 -0.385,2.651 -1.156,3.743 -0.771,1.093 -1.863,1.949 -3.276,2.57 3.586,5.36 5.923,8.823 7.009,10.389 l -5.605,0 -5.688,-9.15 -2.691,0 z m 0,-4.11 1.63,0 c 1.597,0 2.775,-0.267 3.537,-0.799 0.76,-0.533 1.141,-1.371 1.141,-2.512 0,-1.131 -0.389,-1.935 -1.166,-2.415 -0.777,-0.477 -1.979,-0.718 -3.609,-0.718 l -1.532,0 0,6.444 z"
         id="SVGID_47_" /></defs><clipPath
       id="SVGID_48_"><use
         height="100%"
         width="100%"
         y="0"
         x="0"
         style="overflow:visible"
         id="use3551"
         overflow="visible"
         xlink:href="#SVGID_47_" /></clipPath><g
       id="g3553"
       clip-path="url(#SVGID_48_)"><defs
         id="defs3555"><rect
           height="52.999001"
           width="204.146"
           y="35.109001"
           x="29.451"
           id="SVGID_49_" /></defs><clipPath
         id="SVGID_50_"><use
           height="100%"
           width="100%"
           y="0"
           x="0"
           style="overflow:visible"
           id="use3559"
           overflow="visible"
           xlink:href="#SVGID_49_" /></clipPath><rect
         style="fill:#ffffff"
         id="rect3561"
         height="32.393002"
         width="27.576"
         clip-path="url(#SVGID_50_)"
         y="59.233002"
         x="142.13" /></g></g><g
     id="g3563"
     clip-path="url(#SVGID_10_)"><defs
       id="defs3565"><polygon
         points="181.929,63.507 187.534,63.507 179.223,74.06 187.599,87.352 181.863,87.352 175.62,77.305 173.486,78.838 173.486,87.352 168.434,87.352 168.434,63.507 173.486,63.507 173.486,74.418 175.474,71.613 "
         id="SVGID_51_" /></defs><clipPath
       id="SVGID_52_"><use
         height="100%"
         width="100%"
         y="0"
         x="0"
         style="overflow:visible"
         id="use3569"
         overflow="visible"
         xlink:href="#SVGID_51_" /></clipPath><g
       id="g3571"
       clip-path="url(#SVGID_52_)"><defs
         id="defs3573"><rect
           height="52.999001"
           width="204.146"
           y="35.109001"
           x="29.451"
           id="SVGID_53_" /></defs><clipPath
         id="SVGID_54_"><use
           height="100%"
           width="100%"
           y="0"
           x="0"
           style="overflow:visible"
           id="use3577"
           overflow="visible"
           xlink:href="#SVGID_53_" /></clipPath><rect
         style="fill:#ffffff"
         id="rect3579"
         height="32.393002"
         width="27.707001"
         clip-path="url(#SVGID_54_)"
         y="59.233002"
         x="164.16299" /></g></g><g
     id="g3599"
     clip-path="url(#SVGID_10_)"><defs
       id="defs3601"><path
         inkscape:connector-curvature="0"
         d="M 42.921,72.696 C 39.719,69.5 37.958,65.238 37.958,60.717 c 0,-2.741 0.672,-5.462 1.933,-7.869 1.218,-2.332 2.998,-4.382 5.145,-5.914 0.571,-0.4 1.356,-0.271 1.757,0.291 0.399,0.573 0.27,1.36 -0.292,1.759 -1.834,1.316 -3.344,3.055 -4.389,5.041 -1.079,2.051 -1.649,4.372 -1.649,6.703 0,7.953 6.459,14.429 14.406,14.429 0.702,0 1.262,0.562 1.262,1.263 0,0.701 -0.571,1.263 -1.262,1.263 -4.528,-0.001 -8.777,-1.76 -11.948,-4.987"
         id="SVGID_59_" /></defs><clipPath
       id="SVGID_60_"><use
         height="100%"
         width="100%"
         y="0"
         x="0"
         style="overflow:visible"
         id="use3605"
         overflow="visible"
         xlink:href="#SVGID_59_" /></clipPath><g
       id="g3607"
       clip-path="url(#SVGID_60_)"><defs
         id="defs3609"><rect
           height="52.999001"
           width="204.146"
           y="35.109001"
           x="29.451"
           id="SVGID_61_" /></defs><clipPath
         id="SVGID_62_"><use
           height="100%"
           width="100%"
           y="0"
           x="0"
           style="overflow:visible"
           id="use3613"
           overflow="visible"
           xlink:href="#SVGID_61_" /></clipPath><rect
         style="fill:#ffffff"
         id="rect3615"
         height="39.528"
         width="26.715"
         clip-path="url(#SVGID_62_)"
         y="42.428001"
         x="33.688" /></g></g><g
     id="g3617"
     clip-path="url(#SVGID_10_)"><defs
       id="defs3619"><path
         inkscape:connector-curvature="0"
         d="M 39.902,75.75 C 35.899,71.746 33.7,66.425 33.7,60.76 c 0,-3.433 0.831,-6.843 2.415,-9.853 1.531,-2.926 3.754,-5.484 6.439,-7.405 3.602,-2.579 7.862,-3.95 12.315,-3.95 1.424,0 2.847,0.14 4.228,0.421 0.68,0.13 1.122,0.799 0.981,1.478 -0.129,0.681 -0.798,1.123 -1.477,0.983 -1.218,-0.249 -2.48,-0.377 -3.732,-0.377 -3.916,0 -7.667,1.209 -10.849,3.486 -2.372,1.694 -4.335,3.95 -5.683,6.518 -1.403,2.656 -2.136,5.656 -2.136,8.678 0,4.986 1.941,9.68 5.468,13.21 3.527,3.529 8.217,5.471 13.2,5.471 0.702,0 1.262,0.56 1.262,1.263 0,0.701 -0.571,1.262 -1.262,1.262 -5.661,0 -10.978,-2.213 -14.967,-6.195"
         id="SVGID_63_" /></defs><clipPath
       id="SVGID_64_"><use
         height="100%"
         width="100%"
         y="0"
         x="0"
         style="overflow:visible"
         id="use3623"
         overflow="visible"
         xlink:href="#SVGID_63_" /></clipPath><g
       id="g3625"
       clip-path="url(#SVGID_64_)"><defs
         id="defs3627"><rect
           height="52.999001"
           width="204.146"
           y="35.109001"
           x="29.451"
           id="SVGID_65_" /></defs><clipPath
         id="SVGID_66_"><use
           height="100%"
           width="100%"
           y="0"
           x="0"
           style="overflow:visible"
           id="use3631"
           overflow="visible"
           xlink:href="#SVGID_65_" /></clipPath><rect
         style="fill:#ffffff"
         id="rect3633"
         height="50.941002"
         width="34.945999"
         clip-path="url(#SVGID_66_)"
         y="35.278"
         x="29.429001" /></g></g><g
     id="g3635"
     clip-path="url(#SVGID_10_)"><defs
       id="defs3637"><path
         inkscape:connector-curvature="0"
         d="m 54.87,86.219 c -3.439,0 -6.773,-0.679 -9.9,-2.019 -3.03,-1.284 -5.748,-3.118 -8.077,-5.46 -2.329,-2.343 -4.163,-5.062 -5.445,-8.094 -1.328,-3.142 -1.996,-6.476 -1.996,-9.908 0,-4.122 1.002,-8.213 2.901,-11.828 1.833,-3.508 4.509,-6.584 7.722,-8.893 4.335,-3.12 9.469,-4.771 14.828,-4.771 1.704,0 3.398,0.163 5.046,0.497 5.673,1.144 10.85,4.251 14.572,8.741 1.853,2.235 3.298,4.75 4.289,7.458 1.037,2.817 1.555,5.765 1.555,8.785 0,0.907 -0.044,1.825 -0.14,2.719 -0.076,0.691 -0.691,1.199 -1.382,1.123 -0.689,-0.075 -1.196,-0.69 -1.122,-1.381 0.087,-0.799 0.129,-1.629 0.129,-2.45 0,-2.721 -0.472,-5.386 -1.401,-7.91 -0.896,-2.45 -2.188,-4.707 -3.861,-6.725 -3.354,-4.048 -8.014,-6.854 -13.136,-7.878 -1.487,-0.302 -3.02,-0.454 -4.55,-0.454 -4.831,0 -9.447,1.489 -13.361,4.294 -2.901,2.084 -5.318,4.857 -6.956,8.021 -1.704,3.259 -2.612,6.939 -2.612,10.652 0,6.131 2.384,11.894 6.708,16.231 4.325,4.329 10.072,6.725 16.199,6.735 0.689,0 1.25,0.573 1.25,1.263 -0.009,0.69 -0.569,1.252 -1.26,1.252 -0.011,0 -0.011,0 0,0"
         id="SVGID_67_" /></defs><clipPath
       id="SVGID_68_"><use
         height="100%"
         width="100%"
         y="0"
         x="0"
         style="overflow:visible"
         id="use3641"
         overflow="visible"
         xlink:href="#SVGID_67_" /></clipPath><g
       id="g3643"
       clip-path="url(#SVGID_68_)"><defs
         id="defs3645"><rect
           height="52.999001"
           width="204.146"
           y="35.109001"
           x="29.451"
           id="SVGID_69_" /></defs><clipPath
         id="SVGID_70_"><use
           height="100%"
           width="100%"
           y="0"
           x="0"
           style="overflow:visible"
           id="use3649"
           overflow="visible"
           xlink:href="#SVGID_69_" /></clipPath><rect
         style="fill:#ffffff"
         id="rect3651"
         height="59.521"
         width="59.455002"
         clip-path="url(#SVGID_70_)"
         y="30.972"
         x="25.18" /></g></g><g
     id="g3653"
     clip-path="url(#SVGID_10_)"><defs
       id="defs3655"><path
         inkscape:connector-curvature="0"
         d="m 54.924,60.479 -0.033,0 c -0.021,-0.011 -0.032,-0.021 -0.032,-0.043 0.011,-0.021 0.021,-0.032 0.043,-0.032 l 0.021,0 c 0.021,0.011 0.032,0.021 0.032,0.043 0.001,0.021 -0.01,0.032 -0.031,0.032"
         id="SVGID_71_" /></defs><clipPath
       id="SVGID_72_"><use
         height="100%"
         width="100%"
         y="0"
         x="0"
         style="overflow:visible"
         id="use3659"
         overflow="visible"
         xlink:href="#SVGID_71_" /></clipPath><g
       id="g3661"
       clip-path="url(#SVGID_72_)"><defs
         id="defs3663"><rect
           height="52.999001"
           width="204.146"
           y="35.109001"
           x="29.451"
           id="SVGID_73_" /></defs><clipPath
         id="SVGID_74_"><use
           height="100%"
           width="100%"
           y="0"
           x="0"
           style="overflow:visible"
           id="use3667"
           overflow="visible"
           xlink:href="#SVGID_73_" /></clipPath><rect
         style="fill:#ffffff"
         id="rect3669"
         height="8.6239996"
         width="8.6389999"
         clip-path="url(#SVGID_74_)"
         y="56.129002"
         x="50.588001" /></g></g><g
     id="g3671"
     clip-path="url(#SVGID_10_)"><defs
       id="defs3673"><path
         inkscape:connector-curvature="0"
         d="m 52.877,67.148 c -0.487,0 -0.978,-0.165 -1.384,-0.498 -0.017,-0.012 -0.034,-0.023 -0.05,-0.036 -0.042,-0.033 -0.095,-0.078 -0.149,-0.124 -10e-4,0 -10e-4,-0.003 -0.002,-0.003 0,0 0,-0.002 -0.002,-0.002 -0.032,-0.023 -0.071,-0.061 -0.114,-0.101 l -3.764,-3.767 c -0.858,-0.861 -0.859,-2.268 -10e-4,-3.135 0.863,-0.843 2.309,-0.831 3.136,-0.002 l 2.308,2.31 8.873,-9.093 c 0.41,-0.409 0.955,-0.846 1.532,-0.846 l 0.007,0 c 0.592,0 1.15,0.449 1.57,0.874 0.424,0.425 0.659,1.09 0.659,1.678 0,0.581 -0.224,1.18 -0.635,1.591 L 54.396,66.49 c -0.415,0.419 -0.967,0.658 -1.519,0.658"
         id="SVGID_75_" /></defs><clipPath
       id="SVGID_76_"><use
         height="100%"
         width="100%"
         y="0"
         x="0"
         style="overflow:visible"
         id="use3677"
         overflow="visible"
         xlink:href="#SVGID_75_" /></clipPath><g
       id="g3679"
       clip-path="url(#SVGID_76_)"><defs
         id="defs3681"><rect
           height="52.999001"
           width="204.146"
           y="35.109001"
           x="29.451"
           id="SVGID_77_" /></defs><clipPath
         id="SVGID_78_"><use
           height="100%"
           width="100%"
           y="0"
           x="0"
           style="overflow:visible"
           id="use3685"
           overflow="visible"
           xlink:href="#SVGID_77_" /></clipPath><rect
         style="fill:#ffffff"
         id="rect3687"
         height="23.847"
         width="27.268"
         clip-path="url(#SVGID_78_)"
         y="47.576"
         x="42.497002" /></g></g></svg>