<?xml version="1.0" encoding="utf-8"?>
<!-- Generator: Adobe Illustrator 16.0.0, SVG Export Plug-In . SVG Version: 6.00 Build 0)  -->
<!DOCTYPE svg PUBLIC "-//W3C//DTD SVG 1.1//EN" "http://www.w3.org/Graphics/SVG/1.1/DTD/svg11.dtd">
<svg version="1.1" id="Capa_1" xmlns="http://www.w3.org/2000/svg" xmlns:xlink="http://www.w3.org/1999/xlink" x="0px" y="0px"
	 width="262.365px" height="119.354px" viewBox="0 0 262.365 119.354" enable-background="new 0 0 262.365 119.354"
	 xml:space="preserve">
<g>
	<defs>
		<path id="SVGID_1_" d="M96.791,37.146c-2.988,0-5.339,0.956-7.056,2.87c-1.717,1.914-2.575,4.534-2.575,7.861
			c0,3.403,0.809,6.045,2.428,7.927c1.619,1.882,3.933,2.821,6.942,2.821c1.999,0,3.836-0.255,5.509-0.767v1.468
			c-1.576,0.555-3.542,0.832-5.9,0.832c-3.347,0-5.981-1.081-7.904-3.245c-1.923-2.164-2.884-5.187-2.884-9.068
			c0-2.425,0.459-4.562,1.377-6.41c0.918-1.849,2.239-3.275,3.96-4.282c1.722-1.005,3.724-1.508,6.006-1.508
			c2.323,0,4.405,0.435,6.241,1.305l-0.668,1.5C100.529,37.581,98.704,37.146,96.791,37.146z"/>
	</defs>
	<clipPath id="SVGID_2_">
		<use xlink:href="#SVGID_1_"  overflow="visible"/>
	</clipPath>
	<g clip-path="url(#SVGID_2_)">
		<defs>
			<rect id="SVGID_3_" x="-47.979" y="-8.355" width="360" height="640"/>
		</defs>
		<clipPath id="SVGID_4_">
			<use xlink:href="#SVGID_3_"  overflow="visible"/>
		</clipPath>
		<rect x="80.351" y="30.645" clip-path="url(#SVGID_4_)" fill="#006F8B" width="27.584" height="34.514"/>
	</g>
</g>
<g>
	<defs>
		<rect id="SVGID_5_" x="29.021" y="35.645" width="204.177" height="52.569"/>
	</defs>
	<clipPath id="SVGID_6_">
		<use xlink:href="#SVGID_5_"  overflow="visible"/>
	</clipPath>
	<g clip-path="url(#SVGID_6_)">
		<defs>
			<rect id="SVGID_7_" x="-47.979" y="-8.355" width="360" height="640"/>
		</defs>
		<clipPath id="SVGID_8_">
			<use xlink:href="#SVGID_7_"  overflow="visible"/>
		</clipPath>
		<g clip-path="url(#SVGID_8_)" enable-background="new    ">
			<g>
				<defs>
					<rect id="SVGID_9_" x="29.021" y="35.645" width="205" height="53"/>
				</defs>
				<clipPath id="SVGID_10_">
					<use xlink:href="#SVGID_9_"  overflow="visible"/>
				</clipPath>
				<g clip-path="url(#SVGID_10_)">
					<defs>
						<rect id="SVGID_11_" x="107.352" y="35.988" width="1.662" height="23.846"/>
					</defs>
					<clipPath id="SVGID_12_">
						<use xlink:href="#SVGID_11_"  overflow="visible"/>
					</clipPath>
					<g clip-path="url(#SVGID_12_)">
						<defs>
							<rect id="SVGID_13_" x="29.021" y="35.645" width="205" height="53"/>
						</defs>
						<clipPath id="SVGID_14_">
							<use xlink:href="#SVGID_13_"  overflow="visible"/>
						</clipPath>
						<rect x="102.352" y="30.988" clip-path="url(#SVGID_14_)" fill="#006F8B" width="11.662" height="33.846"/>
					</g>
				</g>
				<g clip-path="url(#SVGID_10_)">
					<defs>
						<path id="SVGID_15_" d="M117.423,49.443v10.391h-1.662V35.987h5.672c2.955,0,5.139,0.547,6.551,1.64
							c1.412,1.093,2.118,2.737,2.118,4.934c0,1.599-0.421,2.946-1.263,4.045c-0.841,1.099-2.121,1.887-3.837,2.365l6.469,10.863
							h-1.988l-6.144-10.391H117.423z M117.423,48.008h4.547c2.011,0,3.569-0.449,4.678-1.346c1.108-0.897,1.662-2.221,1.662-3.972
							c0-1.815-0.544-3.138-1.63-3.963c-1.086-0.827-2.858-1.24-5.313-1.24h-3.944V48.008z"/>
					</defs>
					<clipPath id="SVGID_16_">
						<use xlink:href="#SVGID_15_"  overflow="visible"/>
					</clipPath>
					<g clip-path="url(#SVGID_16_)">
						<defs>
							<rect id="SVGID_17_" x="29.021" y="35.645" width="205" height="53"/>
						</defs>
						<clipPath id="SVGID_18_">
							<use xlink:href="#SVGID_17_"  overflow="visible"/>
						</clipPath>
						<rect x="110.761" y="30.987" clip-path="url(#SVGID_18_)" fill="#006F8B" width="25.709" height="33.847"/>
					</g>
				</g>
				<g clip-path="url(#SVGID_10_)">
					<defs>
						<path id="SVGID_19_" d="M145.764,37.146c-2.988,0-5.34,0.956-7.057,2.87s-2.574,4.534-2.574,7.861
							c0,3.403,0.809,6.045,2.428,7.927s3.934,2.821,6.943,2.821c1.998,0,3.836-0.255,5.509-0.767v1.468
							c-1.576,0.555-3.542,0.832-5.901,0.832c-3.346,0-5.98-1.081-7.902-3.245c-1.924-2.164-2.885-5.187-2.885-9.068
							c0-2.425,0.459-4.562,1.377-6.41s2.238-3.275,3.959-4.282c1.723-1.005,3.725-1.508,6.007-1.508
							c2.323,0,4.405,0.435,6.241,1.305l-0.668,1.5C149.502,37.581,147.676,37.146,145.764,37.146"/>
					</defs>
					<clipPath id="SVGID_20_">
						<use xlink:href="#SVGID_19_"  overflow="visible"/>
					</clipPath>
					<g clip-path="url(#SVGID_20_)">
						<defs>
							<rect id="SVGID_21_" x="29.021" y="35.645" width="205" height="53"/>
						</defs>
						<clipPath id="SVGID_22_">
							<use xlink:href="#SVGID_21_"  overflow="visible"/>
						</clipPath>
						<rect x="129.324" y="30.645" clip-path="url(#SVGID_22_)" fill="#006F8B" width="27.584" height="34.514"/>
					</g>
				</g>
				<g clip-path="url(#SVGID_10_)">
					<defs>
						<path id="SVGID_23_" d="M173.844,35.987v15.43c0,2.74-0.793,4.883-2.379,6.427c-1.587,1.544-3.797,2.315-6.633,2.315
							c-2.76,0-4.914-0.774-6.463-2.324c-1.549-1.549-2.322-3.71-2.322-6.483V35.987h1.68v15.43c0,2.294,0.635,4.081,1.906,5.357
							c1.271,1.278,3.068,1.917,5.395,1.917c2.271,0,4.03-0.628,5.279-1.884c1.25-1.256,1.875-2.998,1.875-5.228V35.987H173.844z"/>
					</defs>
					<clipPath id="SVGID_24_">
						<use xlink:href="#SVGID_23_"  overflow="visible"/>
					</clipPath>
					<g clip-path="url(#SVGID_24_)">
						<defs>
							<rect id="SVGID_25_" x="29.021" y="35.645" width="205" height="53"/>
						</defs>
						<clipPath id="SVGID_26_">
							<use xlink:href="#SVGID_25_"  overflow="visible"/>
						</clipPath>
						<rect x="151.047" y="30.987" clip-path="url(#SVGID_26_)" fill="#006F8B" width="27.797" height="34.172"/>
					</g>
				</g>
				<g clip-path="url(#SVGID_10_)">
					<defs>
						<polygon id="SVGID_27_" points="180.33,59.833 180.33,35.987 181.992,35.987 181.992,58.266 193.352,58.266 193.352,59.833 
													"/>
					</defs>
					<clipPath id="SVGID_28_">
						<use xlink:href="#SVGID_27_"  overflow="visible"/>
					</clipPath>
					<g clip-path="url(#SVGID_28_)">
						<defs>
							<rect id="SVGID_29_" x="29.021" y="35.645" width="205" height="53"/>
						</defs>
						<clipPath id="SVGID_30_">
							<use xlink:href="#SVGID_29_"  overflow="visible"/>
						</clipPath>
						<rect x="175.33" y="30.987" clip-path="url(#SVGID_30_)" fill="#006F8B" width="23.021" height="33.846"/>
					</g>
				</g>
				<g clip-path="url(#SVGID_10_)">
					<defs>
						<path id="SVGID_31_" d="M208.932,51.417h-9.681l-3.325,8.417h-1.841l9.583-23.943h1.059l9.387,23.943h-1.873L208.932,51.417z
							 M199.855,49.917h8.523l-3.244-8.596c-0.271-0.674-0.598-1.609-0.979-2.805c-0.293,1.044-0.613,1.989-0.962,2.837
							L199.855,49.917z"/>
					</defs>
					<clipPath id="SVGID_32_">
						<use xlink:href="#SVGID_31_"  overflow="visible"/>
					</clipPath>
					<g clip-path="url(#SVGID_32_)">
						<defs>
							<rect id="SVGID_33_" x="29.021" y="35.645" width="205" height="53"/>
						</defs>
						<clipPath id="SVGID_34_">
							<use xlink:href="#SVGID_33_"  overflow="visible"/>
						</clipPath>
						<rect x="189.085" y="30.89" clip-path="url(#SVGID_34_)" fill="#006F8B" width="30.028" height="33.943"/>
					</g>
				</g>
				<g clip-path="url(#SVGID_10_)">
					<defs>
						<path id="SVGID_35_" d="M219.15,49.443v10.391h-1.662V35.987h5.67c2.955,0,5.139,0.547,6.553,1.64
							c1.412,1.093,2.119,2.737,2.119,4.934c0,1.599-0.422,2.946-1.264,4.045s-2.122,1.887-3.839,2.365l6.47,10.863h-1.986
							l-6.145-10.391H219.15z M219.15,48.008h4.546c2.011,0,3.569-0.449,4.679-1.346c1.107-0.897,1.66-2.221,1.66-3.972
							c0-1.815-0.543-3.138-1.629-3.963c-1.087-0.827-2.857-1.24-5.312-1.24h-3.943V48.008z"/>
					</defs>
					<clipPath id="SVGID_36_">
						<use xlink:href="#SVGID_35_"  overflow="visible"/>
					</clipPath>
					<g clip-path="url(#SVGID_36_)">
						<defs>
							<rect id="SVGID_37_" x="29.021" y="35.645" width="205" height="53"/>
						</defs>
						<clipPath id="SVGID_38_">
							<use xlink:href="#SVGID_37_"  overflow="visible"/>
						</clipPath>
						<rect x="212.488" y="30.987" clip-path="url(#SVGID_38_)" fill="#006F8B" width="25.709" height="33.847"/>
					</g>
				</g>
				<g clip-path="url(#SVGID_10_)">
					<defs>
						<path id="SVGID_39_" d="M110.345,87.889h-5.753l-3.227-12.526c-0.12-0.445-0.324-1.367-0.611-2.765
							c-0.288-1.396-0.454-2.335-0.497-2.813c-0.065,0.588-0.228,1.53-0.489,2.83c-0.261,1.299-0.462,2.226-0.604,2.78l-3.21,12.494
							h-5.737l-6.079-23.846h4.971l3.048,13.016c0.532,2.403,0.917,4.485,1.156,6.247c0.065-0.62,0.214-1.58,0.449-2.879
							c0.233-1.3,0.454-2.309,0.659-3.025l3.471-13.358h4.776l3.471,13.358c0.153,0.598,0.343,1.511,0.57,2.739
							c0.229,1.229,0.402,2.283,0.522,3.165c0.108-0.849,0.283-1.905,0.522-3.173c0.238-1.267,0.456-2.291,0.651-3.074l3.031-13.016
							h4.971L110.345,87.889z"/>
					</defs>
					<clipPath id="SVGID_40_">
						<use xlink:href="#SVGID_39_"  overflow="visible"/>
					</clipPath>
					<g clip-path="url(#SVGID_40_)">
						<defs>
							<rect id="SVGID_41_" x="29.021" y="35.645" width="205" height="53"/>
						</defs>
						<clipPath id="SVGID_42_">
							<use xlink:href="#SVGID_41_"  overflow="visible"/>
						</clipPath>
						<rect x="79.139" y="59.043" clip-path="url(#SVGID_42_)" fill="#006F8B" width="42.269" height="33.846"/>
					</g>
				</g>
				<g clip-path="url(#SVGID_10_)">
					<defs>
						<path id="SVGID_43_" d="M141.032,75.933c0,3.947-0.978,6.981-2.933,9.101c-1.956,2.121-4.76,3.182-8.41,3.182
							c-3.65,0-6.454-1.061-8.41-3.182c-1.955-2.119-2.932-5.164-2.932-9.133s0.98-6.999,2.941-9.093
							c1.962-2.094,4.773-3.14,8.434-3.14c3.661,0,6.462,1.055,8.401,3.164C140.063,68.942,141.032,71.975,141.032,75.933
							 M123.644,75.933c0,2.665,0.506,4.67,1.515,6.02c1.011,1.348,2.521,2.021,4.531,2.021c4.031,0,6.046-2.68,6.046-8.041
							c0-5.37-2.003-8.057-6.013-8.057c-2.009,0-3.526,0.677-4.547,2.03C124.155,71.261,123.644,73.27,123.644,75.933"/>
					</defs>
					<clipPath id="SVGID_44_">
						<use xlink:href="#SVGID_43_"  overflow="visible"/>
					</clipPath>
					<g clip-path="url(#SVGID_44_)">
						<defs>
							<rect id="SVGID_45_" x="29.021" y="35.645" width="205" height="53"/>
						</defs>
						<clipPath id="SVGID_46_">
							<use xlink:href="#SVGID_45_"  overflow="visible"/>
						</clipPath>
						<rect x="113.347" y="58.668" clip-path="url(#SVGID_46_)" fill="#006F8B" width="32.685" height="34.547"/>
					</g>
				</g>
				<g clip-path="url(#SVGID_10_)">
					<defs>
						<path id="SVGID_47_" d="M151.021,78.739v9.15h-5.051V64.043h6.942c3.237,0,5.634,0.591,7.187,1.77
							c1.555,1.181,2.33,2.971,2.33,5.374c0,1.403-0.385,2.651-1.156,3.743c-0.771,1.093-1.863,1.949-3.276,2.569
							c3.586,5.36,5.923,8.823,7.009,10.39H159.4l-5.689-9.15H151.021z M151.021,74.628h1.631c1.598,0,2.775-0.267,3.537-0.799
							c0.76-0.533,1.141-1.37,1.141-2.512c0-1.131-0.389-1.936-1.166-2.414c-0.777-0.478-1.98-0.718-3.609-0.718h-1.533V74.628z"/>
					</defs>
					<clipPath id="SVGID_48_">
						<use xlink:href="#SVGID_47_"  overflow="visible"/>
					</clipPath>
					<g clip-path="url(#SVGID_48_)">
						<defs>
							<rect id="SVGID_49_" x="29.021" y="35.645" width="205" height="53"/>
						</defs>
						<clipPath id="SVGID_50_">
							<use xlink:href="#SVGID_49_"  overflow="visible"/>
						</clipPath>
						<rect x="140.971" y="59.043" clip-path="url(#SVGID_50_)" fill="#006F8B" width="29.035" height="33.846"/>
					</g>
				</g>
				<g clip-path="url(#SVGID_10_)">
					<defs>
						<polygon id="SVGID_51_" points="187.169,87.889 181.434,87.889 175.191,77.842 173.057,79.375 173.057,87.889 168.004,87.889 
							168.004,64.043 173.057,64.043 173.057,74.955 175.044,72.15 181.498,64.043 187.104,64.043 178.793,74.596 						"/>
					</defs>
					<clipPath id="SVGID_52_">
						<use xlink:href="#SVGID_51_"  overflow="visible"/>
					</clipPath>
					<g clip-path="url(#SVGID_52_)">
						<defs>
							<rect id="SVGID_53_" x="29.021" y="35.645" width="205" height="53"/>
						</defs>
						<clipPath id="SVGID_54_">
							<use xlink:href="#SVGID_53_"  overflow="visible"/>
						</clipPath>
						<rect x="163.004" y="59.043" clip-path="url(#SVGID_54_)" fill="#006F8B" width="29.165" height="33.846"/>
					</g>
				</g>
				<g clip-path="url(#SVGID_10_)">
					<defs>
						<path id="SVGID_55_" d="M204.232,81.267c0,2.152-0.773,3.849-2.322,5.089c-1.548,1.239-3.702,1.858-6.461,1.858
							c-2.543,0-4.792-0.478-6.748-1.435v-4.697c1.607,0.717,2.969,1.224,4.083,1.517c1.112,0.294,2.132,0.44,3.056,0.44
							c1.108,0,1.958-0.212,2.55-0.637c0.593-0.424,0.889-1.054,0.889-1.892c0-0.467-0.131-0.883-0.392-1.248
							c-0.26-0.364-0.644-0.714-1.149-1.051c-0.504-0.337-1.534-0.876-3.088-1.615c-1.456-0.685-2.547-1.343-3.275-1.974
							c-0.728-0.63-1.309-1.364-1.745-2.201c-0.434-0.838-0.65-1.816-0.65-2.937c0-2.108,0.715-3.768,2.143-4.975
							c1.429-1.207,3.404-1.811,5.924-1.811c1.239,0,2.422,0.147,3.545,0.44c1.125,0.294,2.302,0.707,3.529,1.24l-1.63,3.931
							c-1.271-0.522-2.323-0.887-3.153-1.093c-0.832-0.206-1.65-0.31-2.453-0.31c-0.957,0-1.689,0.222-2.199,0.668
							c-0.512,0.446-0.768,1.027-0.768,1.745c0,0.446,0.104,0.835,0.311,1.167c0.206,0.331,0.535,0.652,0.984,0.961
							c0.451,0.311,1.52,0.868,3.203,1.673c2.229,1.065,3.755,2.134,4.58,3.204C203.82,78.399,204.232,79.712,204.232,81.267"/>
					</defs>
					<clipPath id="SVGID_56_">
						<use xlink:href="#SVGID_55_"  overflow="visible"/>
					</clipPath>
					<g clip-path="url(#SVGID_56_)">
						<defs>
							<rect id="SVGID_57_" x="29.021" y="35.645" width="205" height="53"/>
						</defs>
						<clipPath id="SVGID_58_">
							<use xlink:href="#SVGID_57_"  overflow="visible"/>
						</clipPath>
						<rect x="183.701" y="58.701" clip-path="url(#SVGID_58_)" fill="#006F8B" width="25.531" height="34.514"/>
					</g>
				</g>
				<g clip-path="url(#SVGID_10_)">
					<defs>
						<path id="SVGID_59_" d="M42.491,73.233c-3.202-3.195-4.963-7.459-4.963-11.979c0-2.742,0.672-5.462,1.932-7.869
							c1.219-2.331,2.999-4.382,5.146-5.914c0.571-0.399,1.356-0.27,1.757,0.291c0.4,0.573,0.27,1.36-0.292,1.759
							c-1.834,1.317-3.344,3.055-4.389,5.041c-1.079,2.051-1.649,4.371-1.649,6.702c0,7.954,6.459,14.43,14.407,14.43
							c0.701,0,1.261,0.562,1.261,1.263c0,0.702-0.571,1.264-1.261,1.264C49.912,78.219,45.663,76.459,42.491,73.233"/>
					</defs>
					<clipPath id="SVGID_60_">
						<use xlink:href="#SVGID_59_"  overflow="visible"/>
					</clipPath>
					<g clip-path="url(#SVGID_60_)">
						<defs>
							<rect id="SVGID_61_" x="29.021" y="35.645" width="205" height="53"/>
						</defs>
						<clipPath id="SVGID_62_">
							<use xlink:href="#SVGID_61_"  overflow="visible"/>
						</clipPath>
						<rect x="32.528" y="42.239" clip-path="url(#SVGID_62_)" fill="#006F8B" width="28.173" height="40.98"/>
					</g>
				</g>
				<g clip-path="url(#SVGID_10_)">
					<defs>
						<path id="SVGID_63_" d="M39.473,76.287c-4.003-4.004-6.202-9.325-6.202-14.991c0-3.432,0.831-6.843,2.416-9.853
							c1.531-2.926,3.754-5.483,6.438-7.404c3.602-2.579,7.862-3.95,12.315-3.95c1.424,0,2.847,0.14,4.228,0.42
							c0.68,0.13,1.122,0.8,0.981,1.479c-0.129,0.681-0.798,1.123-1.477,0.982c-1.218-0.248-2.48-0.377-3.732-0.377
							c-3.916,0-7.667,1.209-10.85,3.486c-2.371,1.693-4.335,3.949-5.682,6.518c-1.403,2.656-2.136,5.656-2.136,8.678
							c0,4.986,1.941,9.681,5.468,13.211c3.527,3.529,8.217,5.471,13.199,5.471c0.702,0,1.262,0.562,1.262,1.264
							c0,0.701-0.571,1.263-1.262,1.263C48.779,82.482,43.461,80.269,39.473,76.287"/>
					</defs>
					<clipPath id="SVGID_64_">
						<use xlink:href="#SVGID_63_"  overflow="visible"/>
					</clipPath>
					<g clip-path="url(#SVGID_64_)">
						<defs>
							<rect id="SVGID_65_" x="29.021" y="35.645" width="205" height="53"/>
						</defs>
						<clipPath id="SVGID_66_">
							<use xlink:href="#SVGID_65_"  overflow="visible"/>
						</clipPath>
						<rect x="28.271" y="35.088" clip-path="url(#SVGID_66_)" fill="#006F8B" width="36.404" height="52.394"/>
					</g>
				</g>
				<g clip-path="url(#SVGID_10_)">
					<defs>
						<path id="SVGID_67_" d="M54.44,86.756c-3.439,0-6.772-0.68-9.9-2.019c-3.03-1.284-5.748-3.118-8.077-5.461
							c-2.329-2.342-4.163-5.062-5.445-8.095c-1.328-3.142-1.996-6.475-1.996-9.908c0-4.122,1.002-8.213,2.901-11.828
							c1.832-3.508,4.509-6.584,7.722-8.894c4.335-3.12,9.469-4.771,14.829-4.771c1.703,0,3.397,0.162,5.046,0.497
							c5.673,1.144,10.85,4.252,14.572,8.741c1.853,2.235,3.298,4.75,4.289,7.458c1.036,2.817,1.554,5.765,1.554,8.786
							c0,0.905-0.043,1.824-0.139,2.718c-0.076,0.691-0.691,1.199-1.382,1.123c-0.689-0.075-1.196-0.69-1.122-1.38
							c0.087-0.8,0.129-1.631,0.129-2.451c0-2.72-0.472-5.386-1.401-7.91c-0.895-2.45-2.188-4.706-3.861-6.725
							c-3.354-4.048-8.014-6.854-13.136-7.879c-1.487-0.302-3.02-0.453-4.55-0.453c-4.832,0-9.447,1.489-13.361,4.295
							c-2.901,2.084-5.318,4.856-6.955,8.02c-1.704,3.26-2.612,6.94-2.612,10.652c0,6.131,2.384,11.895,6.708,16.232
							c4.325,4.328,10.073,6.725,16.199,6.735c0.689,0,1.25,0.572,1.25,1.263C55.692,86.194,55.131,86.756,54.44,86.756
							C54.429,86.756,54.429,86.756,54.44,86.756"/>
					</defs>
					<clipPath id="SVGID_68_">
						<use xlink:href="#SVGID_67_"  overflow="visible"/>
					</clipPath>
					<g clip-path="url(#SVGID_68_)">
						<defs>
							<rect id="SVGID_69_" x="29.021" y="35.645" width="205" height="53"/>
						</defs>
						<clipPath id="SVGID_70_">
							<use xlink:href="#SVGID_69_"  overflow="visible"/>
						</clipPath>
						<rect x="24.021" y="30.782" clip-path="url(#SVGID_70_)" fill="#006F8B" width="60.913" height="60.975"/>
					</g>
				</g>
				<g clip-path="url(#SVGID_10_)">
					<defs>
						<path id="SVGID_71_" d="M54.495,61.015h-0.033c-0.021-0.011-0.032-0.021-0.032-0.043c0.011-0.021,0.021-0.033,0.043-0.033
							h0.021c0.021,0.012,0.032,0.022,0.032,0.044S54.516,61.015,54.495,61.015"/>
					</defs>
					<clipPath id="SVGID_72_">
						<use xlink:href="#SVGID_71_"  overflow="visible"/>
					</clipPath>
					<g clip-path="url(#SVGID_72_)">
						<defs>
							<rect id="SVGID_73_" x="29.021" y="35.645" width="205" height="53"/>
						</defs>
						<clipPath id="SVGID_74_">
							<use xlink:href="#SVGID_73_"  overflow="visible"/>
						</clipPath>
						<rect x="49.43" y="55.939" clip-path="url(#SVGID_74_)" fill="#006F8B" width="10.097" height="10.076"/>
					</g>
				</g>
				<g clip-path="url(#SVGID_10_)">
					<defs>
						<path id="SVGID_75_" d="M52.448,67.685c-0.487,0-0.978-0.165-1.384-0.499c-0.017-0.012-0.033-0.022-0.05-0.035
							c-0.042-0.033-0.095-0.079-0.149-0.125c0,0,0-0.003-0.002-0.003c0,0,0-0.002-0.002-0.002
							c-0.032-0.023-0.071-0.062-0.114-0.102l-3.763-3.767c-0.858-0.861-0.859-2.268-0.002-3.135
							c0.863-0.843,2.309-0.83,3.136-0.003l2.308,2.31l8.873-9.092c0.41-0.409,0.954-0.847,1.531-0.847h0.007
							c0.592,0,1.151,0.449,1.57,0.874c0.423,0.426,0.658,1.09,0.658,1.678c0,0.582-0.224,1.181-0.634,1.591L53.967,67.026
							C53.551,67.446,53,67.685,52.448,67.685"/>
					</defs>
					<clipPath id="SVGID_76_">
						<use xlink:href="#SVGID_75_"  overflow="visible"/>
					</clipPath>
					<g clip-path="url(#SVGID_76_)">
						<defs>
							<rect id="SVGID_77_" x="29.021" y="35.645" width="205" height="53"/>
						</defs>
						<clipPath id="SVGID_78_">
							<use xlink:href="#SVGID_77_"  overflow="visible"/>
						</clipPath>
						<rect x="41.338" y="47.386" clip-path="url(#SVGID_78_)" fill="#E74F3A" width="28.726" height="25.299"/>
					</g>
				</g>
			</g>
		</g>
	</g>
</g>
</svg>
