<?xml version="1.0" encoding="utf-8"?>
<!-- Generator: Adobe Illustrator 16.0.0, SVG Export Plug-In . SVG Version: 6.00 Build 0)  -->
<!DOCTYPE svg PUBLIC "-//W3C//DTD SVG 1.1//EN" "http://www.w3.org/Graphics/SVG/1.1/DTD/svg11.dtd">
<svg version="1.1" id="Capa_1" xmlns="http://www.w3.org/2000/svg" xmlns:xlink="http://www.w3.org/1999/xlink" x="0px" y="0px"
	 width="262.365px" height="119.354px" viewBox="0 0 262.365 119.354" enable-background="new 0 0 262.365 119.354"
	 xml:space="preserve">
<g>
	<g>
		<defs>
			<path id="SVGID_1_" d="M97.221,36.61c-2.988,0-5.339,0.956-7.057,2.87c-1.717,1.914-2.574,4.534-2.574,7.861
				c0,3.403,0.809,6.045,2.427,7.926c1.62,1.881,3.934,2.821,6.943,2.821c1.999,0,3.836-0.255,5.51-0.766v1.468
				c-1.576,0.555-3.542,0.832-5.901,0.832c-3.347,0-5.981-1.082-7.904-3.245c-1.923-2.165-2.884-5.188-2.884-9.069
				c0-2.424,0.459-4.561,1.376-6.41c0.918-1.849,2.239-3.275,3.96-4.281c1.722-1.005,3.724-1.509,6.006-1.509
				c2.323,0,4.405,0.435,6.241,1.305l-0.668,1.5C100.958,37.045,99.133,36.61,97.221,36.61z"/>
		</defs>
		<clipPath id="SVGID_2_">
			<use xlink:href="#SVGID_1_"  overflow="visible"/>
		</clipPath>
		<g clip-path="url(#SVGID_2_)">
			<defs>
				<rect id="SVGID_3_" x="-21.799" y="-66.615" width="307.5" height="547.086"/>
			</defs>
			<clipPath id="SVGID_4_">
				<use xlink:href="#SVGID_3_"  overflow="visible"/>
			</clipPath>
			<rect x="81.51" y="30.835" clip-path="url(#SVGID_4_)" fill="#FFFFFF" width="26.125" height="33.062"/>
		</g>
	</g>
	<g>
		<defs>
			<rect id="SVGID_5_" x="29.451" y="35.109" width="204.177" height="52.569"/>
		</defs>
		<clipPath id="SVGID_6_">
			<use xlink:href="#SVGID_5_"  overflow="visible"/>
		</clipPath>
		<g clip-path="url(#SVGID_6_)">
			<defs>
				<rect id="SVGID_7_" x="-21.799" y="-66.615" width="307.5" height="547.086"/>
			</defs>
			<clipPath id="SVGID_8_">
				<use xlink:href="#SVGID_7_"  overflow="visible"/>
			</clipPath>
			<g clip-path="url(#SVGID_8_)" enable-background="new    ">
				<g>
					<defs>
						<rect id="SVGID_9_" x="29.451" y="35.109" width="204.146" height="52.999"/>
					</defs>
					<clipPath id="SVGID_10_">
						<use xlink:href="#SVGID_9_"  overflow="visible"/>
					</clipPath>
					<g clip-path="url(#SVGID_10_)">
						<defs>
							<rect id="SVGID_11_" x="107.782" y="35.451" width="1.662" height="23.846"/>
						</defs>
						<clipPath id="SVGID_12_">
							<use xlink:href="#SVGID_11_"  overflow="visible"/>
						</clipPath>
						<g clip-path="url(#SVGID_12_)">
							<defs>
								<rect id="SVGID_13_" x="29.451" y="35.109" width="204.146" height="52.999"/>
							</defs>
							<clipPath id="SVGID_14_">
								<use xlink:href="#SVGID_13_"  overflow="visible"/>
							</clipPath>
							<rect x="103.511" y="31.177" clip-path="url(#SVGID_14_)" fill="#FFFFFF" width="10.204" height="32.394"/>
						</g>
					</g>
					<g clip-path="url(#SVGID_10_)">
						<defs>
							<path id="SVGID_15_" d="M117.853,48.907v10.389h-1.662V35.451h5.671c2.955,0,5.139,0.546,6.551,1.639
								c1.412,1.094,2.118,2.738,2.118,4.935c0,1.598-0.421,2.946-1.263,4.044c-0.841,1.099-2.121,1.887-3.837,2.364l6.469,10.863
								h-1.987l-6.145-10.389H117.853z M117.853,47.471h4.547c2.011,0,3.569-0.448,4.678-1.345c1.108-0.897,1.662-2.221,1.662-3.972
								c0-1.816-0.544-3.137-1.63-3.963c-1.086-0.826-2.858-1.24-5.313-1.24h-3.944V47.471z"/>
						</defs>
						<clipPath id="SVGID_16_">
							<use xlink:href="#SVGID_15_"  overflow="visible"/>
						</clipPath>
						<g clip-path="url(#SVGID_16_)">
							<defs>
								<rect id="SVGID_17_" x="29.451" y="35.109" width="204.146" height="52.999"/>
							</defs>
							<clipPath id="SVGID_18_">
								<use xlink:href="#SVGID_17_"  overflow="visible"/>
							</clipPath>
							<rect x="111.92" y="31.177" clip-path="url(#SVGID_18_)" fill="#FFFFFF" width="24.251" height="32.393"/>
						</g>
					</g>
					<g clip-path="url(#SVGID_10_)">
						<defs>
							<path id="SVGID_19_" d="M146.193,36.61c-2.988,0-5.339,0.956-7.057,2.87c-1.717,1.914-2.574,4.534-2.574,7.861
								c0,3.403,0.809,6.045,2.428,7.926c1.619,1.881,3.934,2.821,6.943,2.821c1.998,0,3.835-0.255,5.509-0.766v1.468
								c-1.576,0.555-3.542,0.832-5.901,0.832c-3.347,0-5.98-1.082-7.902-3.245c-1.924-2.165-2.885-5.188-2.885-9.069
								c0-2.424,0.459-4.561,1.376-6.41c0.919-1.849,2.239-3.275,3.961-4.281c1.722-1.005,3.724-1.509,6.006-1.509
								c2.324,0,4.405,0.435,6.241,1.305l-0.668,1.5C149.932,37.045,148.105,36.61,146.193,36.61"/>
						</defs>
						<clipPath id="SVGID_20_">
							<use xlink:href="#SVGID_19_"  overflow="visible"/>
						</clipPath>
						<g clip-path="url(#SVGID_20_)">
							<defs>
								<rect id="SVGID_21_" x="29.451" y="35.109" width="204.146" height="52.999"/>
							</defs>
							<clipPath id="SVGID_22_">
								<use xlink:href="#SVGID_21_"  overflow="visible"/>
							</clipPath>
							<rect x="130.483" y="30.835" clip-path="url(#SVGID_22_)" fill="#FFFFFF" width="26.125" height="33.062"/>
						</g>
					</g>
					<g clip-path="url(#SVGID_10_)">
						<defs>
							<path id="SVGID_23_" d="M174.274,35.451V50.88c0,2.741-0.794,4.883-2.38,6.427c-1.588,1.544-3.796,2.316-6.633,2.316
								c-2.76,0-4.914-0.775-6.463-2.325c-1.548-1.549-2.322-3.71-2.322-6.483V35.451h1.68V50.88c0,2.295,0.636,4.081,1.906,5.358
								c1.272,1.277,3.069,1.916,5.395,1.916c2.271,0,4.031-0.628,5.28-1.883c1.25-1.256,1.874-2.999,1.874-5.228V35.451H174.274z"
								/>
						</defs>
						<clipPath id="SVGID_24_">
							<use xlink:href="#SVGID_23_"  overflow="visible"/>
						</clipPath>
						<g clip-path="url(#SVGID_24_)">
							<defs>
								<rect id="SVGID_25_" x="29.451" y="35.109" width="204.146" height="52.999"/>
							</defs>
							<clipPath id="SVGID_26_">
								<use xlink:href="#SVGID_25_"  overflow="visible"/>
							</clipPath>
							<rect x="152.206" y="31.177" clip-path="url(#SVGID_26_)" fill="#FFFFFF" width="26.339" height="32.719"/>
						</g>
					</g>
					<g clip-path="url(#SVGID_10_)">
						<defs>
							<polygon id="SVGID_27_" points="180.761,59.296 180.761,35.451 182.422,35.451 182.422,57.73 193.781,57.73 193.781,59.296 
															"/>
						</defs>
						<clipPath id="SVGID_28_">
							<use xlink:href="#SVGID_27_"  overflow="visible"/>
						</clipPath>
						<g clip-path="url(#SVGID_28_)">
							<defs>
								<rect id="SVGID_29_" x="29.451" y="35.109" width="204.146" height="52.999"/>
							</defs>
							<clipPath id="SVGID_30_">
								<use xlink:href="#SVGID_29_"  overflow="visible"/>
							</clipPath>
							<rect x="176.489" y="31.177" clip-path="url(#SVGID_30_)" fill="#FFFFFF" width="21.563" height="32.393"/>
						</g>
					</g>
					<g clip-path="url(#SVGID_10_)">
						<defs>
							<path id="SVGID_31_" d="M209.362,50.88h-9.682l-3.325,8.417h-1.841l9.583-23.943h1.06l9.387,23.943h-1.874L209.362,50.88z
								 M200.284,49.38h8.523l-3.243-8.595c-0.271-0.673-0.599-1.608-0.979-2.805c-0.292,1.043-0.614,1.989-0.961,2.837
								L200.284,49.38z"/>
						</defs>
						<clipPath id="SVGID_32_">
							<use xlink:href="#SVGID_31_"  overflow="visible"/>
						</clipPath>
						<g clip-path="url(#SVGID_32_)">
							<defs>
								<rect id="SVGID_33_" x="29.451" y="35.109" width="204.146" height="52.999"/>
							</defs>
							<clipPath id="SVGID_34_">
								<use xlink:href="#SVGID_33_"  overflow="visible"/>
							</clipPath>
							<rect x="190.244" y="31.08" clip-path="url(#SVGID_34_)" fill="#FFFFFF" width="28.57" height="32.491"/>
						</g>
					</g>
					<g clip-path="url(#SVGID_10_)">
						<defs>
							<path id="SVGID_35_" d="M219.58,48.907v10.389h-1.662V35.451h5.671c2.955,0,5.139,0.546,6.552,1.639
								c1.413,1.094,2.118,2.738,2.118,4.935c0,1.598-0.42,2.946-1.263,4.044c-0.842,1.099-2.122,1.887-3.839,2.364l6.47,10.863
								h-1.986l-6.145-10.389H219.58z M219.58,47.471h4.546c2.011,0,3.569-0.448,4.678-1.345c1.108-0.897,1.662-2.221,1.662-3.972
								c0-1.816-0.544-3.137-1.629-3.963c-1.087-0.826-2.858-1.24-5.312-1.24h-3.944V47.471z"/>
						</defs>
						<clipPath id="SVGID_36_">
							<use xlink:href="#SVGID_35_"  overflow="visible"/>
						</clipPath>
						<g clip-path="url(#SVGID_36_)">
							<defs>
								<rect id="SVGID_37_" x="29.451" y="35.109" width="204.146" height="52.999"/>
							</defs>
							<clipPath id="SVGID_38_">
								<use xlink:href="#SVGID_37_"  overflow="visible"/>
							</clipPath>
							<rect x="213.646" y="31.177" clip-path="url(#SVGID_38_)" fill="#FFFFFF" width="24.252" height="32.393"/>
						</g>
					</g>
					<g clip-path="url(#SVGID_10_)">
						<defs>
							<path id="SVGID_39_" d="M110.775,87.352h-5.753l-3.228-12.526c-0.119-0.445-0.323-1.367-0.61-2.764
								c-0.288-1.396-0.454-2.335-0.497-2.813c-0.065,0.587-0.228,1.53-0.488,2.829c-0.262,1.3-0.462,2.227-0.604,2.781
								l-3.21,12.493h-5.736l-6.079-23.845h4.971l3.048,13.015c0.532,2.403,0.917,4.485,1.156,6.247
								c0.065-0.619,0.214-1.579,0.449-2.878c0.233-1.3,0.454-2.308,0.659-3.025l3.471-13.358h4.776l3.471,13.358
								c0.152,0.598,0.343,1.511,0.57,2.74c0.229,1.229,0.402,2.283,0.522,3.164c0.108-0.848,0.283-1.905,0.521-3.172
								c0.239-1.267,0.457-2.292,0.651-3.075l3.031-13.015h4.972L110.775,87.352z"/>
						</defs>
						<clipPath id="SVGID_40_">
							<use xlink:href="#SVGID_39_"  overflow="visible"/>
						</clipPath>
						<g clip-path="url(#SVGID_40_)">
							<defs>
								<rect id="SVGID_41_" x="29.451" y="35.109" width="204.146" height="52.999"/>
							</defs>
							<clipPath id="SVGID_42_">
								<use xlink:href="#SVGID_41_"  overflow="visible"/>
							</clipPath>
							<rect x="80.298" y="59.233" clip-path="url(#SVGID_42_)" fill="#FFFFFF" width="40.811" height="32.393"/>
						</g>
					</g>
					<g clip-path="url(#SVGID_10_)">
						<defs>
							<path id="SVGID_43_" d="M141.462,75.396c0,3.947-0.978,6.98-2.933,9.101c-1.956,2.12-4.76,3.181-8.41,3.181
								s-6.455-1.061-8.411-3.181c-1.955-2.121-2.932-5.164-2.932-9.133c0-3.969,0.98-6.999,2.941-9.093
								c1.962-2.093,4.773-3.14,8.434-3.14c3.662,0,6.463,1.055,8.401,3.165C140.493,68.405,141.462,71.439,141.462,75.396
								 M124.074,75.396c0,2.665,0.505,4.67,1.514,6.019c1.011,1.348,2.521,2.022,4.532,2.022c4.031,0,6.045-2.68,6.045-8.041
								c0-5.371-2.003-8.056-6.014-8.056c-2.008,0-3.526,0.677-4.546,2.03C124.584,70.725,124.074,72.733,124.074,75.396"/>
						</defs>
						<clipPath id="SVGID_44_">
							<use xlink:href="#SVGID_43_"  overflow="visible"/>
						</clipPath>
						<g clip-path="url(#SVGID_44_)">
							<defs>
								<rect id="SVGID_45_" x="29.451" y="35.109" width="204.146" height="52.999"/>
							</defs>
							<clipPath id="SVGID_46_">
								<use xlink:href="#SVGID_45_"  overflow="visible"/>
							</clipPath>
							<rect x="114.506" y="58.858" clip-path="url(#SVGID_46_)" fill="#FFFFFF" width="31.228" height="33.094"/>
						</g>
					</g>
					<g clip-path="url(#SVGID_10_)">
						<defs>
							<path id="SVGID_47_" d="M151.452,78.202v9.15H146.4V63.507h6.942c3.237,0,5.633,0.59,7.188,1.769
								c1.554,1.181,2.329,2.972,2.329,5.374c0,1.403-0.385,2.651-1.156,3.743c-0.771,1.093-1.863,1.949-3.276,2.57
								c3.586,5.36,5.923,8.823,7.009,10.389h-5.605l-5.688-9.15H151.452z M151.452,74.092h1.63c1.597,0,2.775-0.267,3.537-0.799
								c0.76-0.533,1.141-1.371,1.141-2.512c0-1.131-0.389-1.935-1.166-2.415c-0.777-0.477-1.979-0.718-3.609-0.718h-1.532V74.092z"
								/>
						</defs>
						<clipPath id="SVGID_48_">
							<use xlink:href="#SVGID_47_"  overflow="visible"/>
						</clipPath>
						<g clip-path="url(#SVGID_48_)">
							<defs>
								<rect id="SVGID_49_" x="29.451" y="35.109" width="204.146" height="52.999"/>
							</defs>
							<clipPath id="SVGID_50_">
								<use xlink:href="#SVGID_49_"  overflow="visible"/>
							</clipPath>
							<rect x="142.13" y="59.233" clip-path="url(#SVGID_50_)" fill="#FFFFFF" width="27.576" height="32.393"/>
						</g>
					</g>
					<g clip-path="url(#SVGID_10_)">
						<defs>
							<polygon id="SVGID_51_" points="187.599,87.352 181.863,87.352 175.62,77.305 173.486,78.838 173.486,87.352 168.434,87.352 
								168.434,63.507 173.486,63.507 173.486,74.418 175.474,71.613 181.929,63.507 187.534,63.507 179.223,74.06 							"/>
						</defs>
						<clipPath id="SVGID_52_">
							<use xlink:href="#SVGID_51_"  overflow="visible"/>
						</clipPath>
						<g clip-path="url(#SVGID_52_)">
							<defs>
								<rect id="SVGID_53_" x="29.451" y="35.109" width="204.146" height="52.999"/>
							</defs>
							<clipPath id="SVGID_54_">
								<use xlink:href="#SVGID_53_"  overflow="visible"/>
							</clipPath>
							<rect x="164.163" y="59.233" clip-path="url(#SVGID_54_)" fill="#FFFFFF" width="27.707" height="32.393"/>
						</g>
					</g>
					<g clip-path="url(#SVGID_10_)">
						<defs>
							<path id="SVGID_55_" d="M204.662,80.73c0,2.152-0.774,3.849-2.322,5.089c-1.548,1.24-3.702,1.858-6.461,1.858
								c-2.543,0-4.792-0.478-6.748-1.434v-4.697c1.607,0.717,2.969,1.223,4.084,1.517c1.112,0.294,2.131,0.44,3.055,0.44
								c1.109,0,1.958-0.212,2.551-0.636c0.592-0.424,0.888-1.054,0.888-1.892c0-0.467-0.131-0.883-0.391-1.248
								c-0.261-0.364-0.645-0.714-1.149-1.052c-0.504-0.336-1.535-0.875-3.089-1.614c-1.456-0.685-2.547-1.343-3.276-1.974
								c-0.728-0.63-1.308-1.365-1.743-2.201c-0.434-0.838-0.65-1.816-0.65-2.937c0-2.108,0.714-3.767,2.142-4.974
								c1.43-1.207,3.403-1.811,5.925-1.811c1.238,0,2.42,0.147,3.545,0.44c1.124,0.294,2.301,0.707,3.528,1.241l-1.63,3.93
								c-1.271-0.522-2.322-0.886-3.153-1.093c-0.831-0.207-1.649-0.31-2.452-0.31c-0.958,0-1.69,0.222-2.2,0.669
								c-0.511,0.446-0.767,1.027-0.767,1.745c0,0.446,0.103,0.835,0.31,1.167c0.206,0.332,0.535,0.652,0.985,0.961
								c0.45,0.31,1.519,0.868,3.203,1.671c2.228,1.066,3.754,2.134,4.58,3.205C204.25,77.863,204.662,79.175,204.662,80.73"/>
						</defs>
						<clipPath id="SVGID_56_">
							<use xlink:href="#SVGID_55_"  overflow="visible"/>
						</clipPath>
						<g clip-path="url(#SVGID_56_)">
							<defs>
								<rect id="SVGID_57_" x="29.451" y="35.109" width="204.146" height="52.999"/>
							</defs>
							<clipPath id="SVGID_58_">
								<use xlink:href="#SVGID_57_"  overflow="visible"/>
							</clipPath>
							<rect x="184.859" y="58.891" clip-path="url(#SVGID_58_)" fill="#FFFFFF" width="24.074" height="33.061"/>
						</g>
					</g>
					<g clip-path="url(#SVGID_10_)">
						<defs>
							<path id="SVGID_59_" d="M42.921,72.696c-3.202-3.196-4.963-7.458-4.963-11.979c0-2.741,0.672-5.462,1.933-7.869
								c1.218-2.332,2.998-4.382,5.145-5.914c0.571-0.4,1.356-0.271,1.757,0.291c0.399,0.573,0.27,1.36-0.292,1.759
								c-1.834,1.316-3.344,3.055-4.389,5.041c-1.079,2.051-1.649,4.372-1.649,6.703c0,7.953,6.459,14.429,14.406,14.429
								c0.702,0,1.262,0.562,1.262,1.263s-0.571,1.263-1.262,1.263C50.341,77.682,46.092,75.923,42.921,72.696"/>
						</defs>
						<clipPath id="SVGID_60_">
							<use xlink:href="#SVGID_59_"  overflow="visible"/>
						</clipPath>
						<g clip-path="url(#SVGID_60_)">
							<defs>
								<rect id="SVGID_61_" x="29.451" y="35.109" width="204.146" height="52.999"/>
							</defs>
							<clipPath id="SVGID_62_">
								<use xlink:href="#SVGID_61_"  overflow="visible"/>
							</clipPath>
							<rect x="33.688" y="42.428" clip-path="url(#SVGID_62_)" fill="#FFFFFF" width="26.715" height="39.528"/>
						</g>
					</g>
					<g clip-path="url(#SVGID_10_)">
						<defs>
							<path id="SVGID_63_" d="M39.902,75.75C35.899,71.746,33.7,66.425,33.7,60.76c0-3.433,0.831-6.843,2.415-9.853
								c1.531-2.926,3.754-5.484,6.439-7.405c3.602-2.579,7.862-3.95,12.315-3.95c1.424,0,2.847,0.14,4.228,0.421
								c0.68,0.13,1.122,0.799,0.981,1.478c-0.129,0.681-0.798,1.123-1.477,0.983c-1.218-0.249-2.48-0.377-3.732-0.377
								c-3.916,0-7.667,1.209-10.849,3.486c-2.372,1.694-4.335,3.95-5.683,6.518c-1.403,2.656-2.136,5.656-2.136,8.678
								c0,4.986,1.941,9.68,5.468,13.21c3.527,3.529,8.217,5.471,13.2,5.471c0.702,0,1.262,0.56,1.262,1.263
								c0,0.701-0.571,1.262-1.262,1.262C49.208,81.945,43.891,79.732,39.902,75.75"/>
						</defs>
						<clipPath id="SVGID_64_">
							<use xlink:href="#SVGID_63_"  overflow="visible"/>
						</clipPath>
						<g clip-path="url(#SVGID_64_)">
							<defs>
								<rect id="SVGID_65_" x="29.451" y="35.109" width="204.146" height="52.999"/>
							</defs>
							<clipPath id="SVGID_66_">
								<use xlink:href="#SVGID_65_"  overflow="visible"/>
							</clipPath>
							<rect x="29.429" y="35.278" clip-path="url(#SVGID_66_)" fill="#FFFFFF" width="34.946" height="50.941"/>
						</g>
					</g>
					<g clip-path="url(#SVGID_10_)">
						<defs>
							<path id="SVGID_67_" d="M54.87,86.219c-3.439,0-6.773-0.679-9.9-2.019c-3.03-1.284-5.748-3.118-8.077-5.46
								c-2.329-2.343-4.163-5.062-5.445-8.094c-1.328-3.142-1.996-6.476-1.996-9.908c0-4.122,1.002-8.213,2.901-11.828
								c1.833-3.508,4.509-6.584,7.722-8.893c4.335-3.12,9.469-4.771,14.828-4.771c1.704,0,3.398,0.163,5.046,0.497
								c5.673,1.144,10.85,4.251,14.572,8.741c1.853,2.235,3.298,4.75,4.289,7.458c1.037,2.817,1.555,5.765,1.555,8.785
								c0,0.907-0.044,1.825-0.14,2.719c-0.076,0.691-0.691,1.199-1.382,1.123c-0.689-0.075-1.196-0.69-1.122-1.381
								c0.087-0.799,0.129-1.629,0.129-2.45c0-2.721-0.472-5.386-1.401-7.91c-0.896-2.45-2.188-4.707-3.861-6.725
								c-3.354-4.048-8.014-6.854-13.136-7.878c-1.487-0.302-3.02-0.454-4.55-0.454c-4.831,0-9.447,1.489-13.361,4.294
								c-2.901,2.084-5.318,4.857-6.956,8.021c-1.704,3.259-2.612,6.939-2.612,10.652c0,6.131,2.384,11.894,6.708,16.231
								c4.325,4.329,10.072,6.725,16.199,6.735c0.689,0,1.25,0.573,1.25,1.263C56.121,85.657,55.561,86.219,54.87,86.219
								C54.859,86.219,54.859,86.219,54.87,86.219"/>
						</defs>
						<clipPath id="SVGID_68_">
							<use xlink:href="#SVGID_67_"  overflow="visible"/>
						</clipPath>
						<g clip-path="url(#SVGID_68_)">
							<defs>
								<rect id="SVGID_69_" x="29.451" y="35.109" width="204.146" height="52.999"/>
							</defs>
							<clipPath id="SVGID_70_">
								<use xlink:href="#SVGID_69_"  overflow="visible"/>
							</clipPath>
							<rect x="25.18" y="30.972" clip-path="url(#SVGID_70_)" fill="#FFFFFF" width="59.455" height="59.521"/>
						</g>
					</g>
					<g clip-path="url(#SVGID_10_)">
						<defs>
							<path id="SVGID_71_" d="M54.924,60.479h-0.033c-0.021-0.011-0.032-0.021-0.032-0.043c0.011-0.021,0.021-0.032,0.043-0.032
								h0.021c0.021,0.011,0.032,0.021,0.032,0.043C54.956,60.468,54.945,60.479,54.924,60.479"/>
						</defs>
						<clipPath id="SVGID_72_">
							<use xlink:href="#SVGID_71_"  overflow="visible"/>
						</clipPath>
						<g clip-path="url(#SVGID_72_)">
							<defs>
								<rect id="SVGID_73_" x="29.451" y="35.109" width="204.146" height="52.999"/>
							</defs>
							<clipPath id="SVGID_74_">
								<use xlink:href="#SVGID_73_"  overflow="visible"/>
							</clipPath>
							<rect x="50.588" y="56.129" clip-path="url(#SVGID_74_)" fill="#FFFFFF" width="8.639" height="8.624"/>
						</g>
					</g>
					<g clip-path="url(#SVGID_10_)">
						<defs>
							<path id="SVGID_75_" d="M52.877,67.148c-0.487,0-0.978-0.165-1.384-0.498c-0.017-0.012-0.034-0.023-0.05-0.036
								c-0.042-0.033-0.095-0.078-0.149-0.124c-0.001,0-0.001-0.003-0.002-0.003c0,0,0-0.002-0.002-0.002
								c-0.032-0.023-0.071-0.061-0.114-0.101l-3.764-3.767c-0.858-0.861-0.859-2.268-0.001-3.135
								c0.863-0.843,2.309-0.831,3.136-0.002l2.308,2.31l8.873-9.093c0.41-0.409,0.955-0.846,1.532-0.846h0.007
								c0.592,0,1.15,0.449,1.57,0.874c0.424,0.425,0.659,1.09,0.659,1.678c0,0.581-0.224,1.18-0.635,1.591L54.396,66.49
								C53.981,66.909,53.429,67.148,52.877,67.148"/>
						</defs>
						<clipPath id="SVGID_76_">
							<use xlink:href="#SVGID_75_"  overflow="visible"/>
						</clipPath>
						<g clip-path="url(#SVGID_76_)">
							<defs>
								<rect id="SVGID_77_" x="29.451" y="35.109" width="204.146" height="52.999"/>
							</defs>
							<clipPath id="SVGID_78_">
								<use xlink:href="#SVGID_77_"  overflow="visible"/>
							</clipPath>
							<rect x="42.497" y="47.576" clip-path="url(#SVGID_78_)" fill="#FFFFFF" width="27.268" height="23.847"/>
						</g>
					</g>
				</g>
			</g>
		</g>
	</g>
</g>
</svg>
