<?xml version="1.0" encoding="UTF-8" standalone="no"?>
<!-- Generator: Adobe Illustrator 16.0.0, SVG Export Plug-In . SVG Version: 6.00 Build 0)  -->

<svg
   xmlns:dc="http://purl.org/dc/elements/1.1/"
   xmlns:cc="http://creativecommons.org/ns#"
   xmlns:rdf="http://www.w3.org/1999/02/22-rdf-syntax-ns#"
   xmlns:svg="http://www.w3.org/2000/svg"
   xmlns="http://www.w3.org/2000/svg"
   xmlns:xlink="http://www.w3.org/1999/xlink"
   xmlns:sodipodi="http://sodipodi.sourceforge.net/DTD/sodipodi-0.dtd"
   xmlns:inkscape="http://www.inkscape.org/namespaces/inkscape"
   version="1.1"
   id="Capa_1"
   x="0px"
   y="0px"
   width="316.36499"
   height="53.354"
   viewBox="0 0 316.365 53.354004"
   enable-background="new 0 0 262.365 119.354"
   xml:space="preserve"
   inkscape:version="0.91 r13725"
   sodipodi:docname="logo_color_flattened.svg"><metadata
     id="metadata4102"><rdf:RDF><cc:Work
         rdf:about=""><dc:format>image/svg+xml</dc:format><dc:type
           rdf:resource="http://purl.org/dc/dcmitype/StillImage" /><dc:title></dc:title></cc:Work></rdf:RDF></metadata><defs
     id="defs4100"><defs
       id="defs3768"><rect
         height="52.569"
         width="204.177"
         y="35.645"
         x="29.021"
         id="SVGID_5_" /></defs><clipPath
       id="SVGID_6_"><use
         id="use3772"
         overflow="visible"
         xlink:href="#SVGID_5_"
         style="overflow:visible"
         x="0"
         y="0"
         width="100%"
         height="100%" /></clipPath><defs
       id="defs3776"><rect
         id="SVGID_7_"
         x="-47.979"
         y="-8.3549995"
         width="360"
         height="640" /></defs><clipPath
       id="SVGID_8_"><use
         xlink:href="#SVGID_7_"
         overflow="visible"
         id="use3780"
         style="overflow:visible"
         x="0"
         y="0"
         width="100%"
         height="100%" /></clipPath><defs
       id="defs3786"><rect
         id="SVGID_9_"
         x="29.021"
         y="35.645"
         width="205"
         height="53" /></defs><clipPath
       id="SVGID_10_"><use
         xlink:href="#SVGID_9_"
         overflow="visible"
         id="use3790"
         style="overflow:visible"
         x="0"
         y="0"
         width="100%"
         height="100%" /></clipPath><defs
       id="defs4082"><path
         inkscape:connector-curvature="0"
         d="m 52.448,67.685 c -0.487,0 -0.978,-0.165 -1.384,-0.499 -0.017,-0.012 -0.033,-0.022 -0.05,-0.035 -0.042,-0.033 -0.095,-0.079 -0.149,-0.125 0,0 0,-0.003 -0.002,-0.003 0,0 0,-0.002 -0.002,-0.002 -0.032,-0.023 -0.071,-0.062 -0.114,-0.102 l -3.763,-3.767 c -0.858,-0.861 -0.859,-2.268 -0.002,-3.135 0.863,-0.843 2.309,-0.83 3.136,-0.003 l 2.308,2.31 8.873,-9.092 c 0.41,-0.409 0.954,-0.847 1.531,-0.847 l 0.007,0 c 0.592,0 1.151,0.449 1.57,0.874 0.423,0.426 0.658,1.09 0.658,1.678 0,0.582 -0.224,1.181 -0.634,1.591 L 53.967,67.026 c -0.416,0.42 -0.967,0.659 -1.519,0.659"
         id="SVGID_75_" /></defs><clipPath
       id="SVGID_76_"><use
         height="100%"
         width="100%"
         y="0"
         x="0"
         style="overflow:visible"
         id="use4086"
         overflow="visible"
         xlink:href="#SVGID_75_" /></clipPath><defs
       id="defs4064"><path
         inkscape:connector-curvature="0"
         d="m 54.495,61.015 -0.033,0 c -0.021,-0.011 -0.032,-0.021 -0.032,-0.043 0.011,-0.021 0.021,-0.033 0.043,-0.033 l 0.021,0 c 0.021,0.012 0.032,0.022 0.032,0.044 0,0.022 -0.01,0.032 -0.031,0.032"
         id="SVGID_71_" /></defs><clipPath
       id="SVGID_72_"><use
         height="100%"
         width="100%"
         y="0"
         x="0"
         style="overflow:visible"
         id="use4068"
         overflow="visible"
         xlink:href="#SVGID_71_" /></clipPath><defs
       id="defs4046"><path
         inkscape:connector-curvature="0"
         d="m 54.44,86.756 c -3.439,0 -6.772,-0.68 -9.9,-2.019 -3.03,-1.284 -5.748,-3.118 -8.077,-5.461 -2.329,-2.342 -4.163,-5.062 -5.445,-8.095 -1.328,-3.142 -1.996,-6.475 -1.996,-9.908 0,-4.122 1.002,-8.213 2.901,-11.828 1.832,-3.508 4.509,-6.584 7.722,-8.894 4.335,-3.12 9.469,-4.771 14.829,-4.771 1.703,0 3.397,0.162 5.046,0.497 5.673,1.144 10.85,4.252 14.572,8.741 1.853,2.235 3.298,4.75 4.289,7.458 1.036,2.817 1.554,5.765 1.554,8.786 0,0.905 -0.043,1.824 -0.139,2.718 -0.076,0.691 -0.691,1.199 -1.382,1.123 -0.689,-0.075 -1.196,-0.69 -1.122,-1.38 0.087,-0.8 0.129,-1.631 0.129,-2.451 0,-2.72 -0.472,-5.386 -1.401,-7.91 -0.895,-2.45 -2.188,-4.706 -3.861,-6.725 -3.354,-4.048 -8.014,-6.854 -13.136,-7.879 -1.487,-0.302 -3.02,-0.453 -4.55,-0.453 -4.832,0 -9.447,1.489 -13.361,4.295 -2.901,2.084 -5.318,4.856 -6.955,8.02 -1.704,3.26 -2.612,6.94 -2.612,10.652 0,6.131 2.384,11.895 6.708,16.232 4.325,4.328 10.073,6.725 16.199,6.735 0.689,0 1.25,0.572 1.25,1.263 -0.01,0.692 -0.571,1.254 -1.262,1.254 -0.011,0 -0.011,0 0,0"
         id="SVGID_67_" /></defs><clipPath
       id="SVGID_68_"><use
         height="100%"
         width="100%"
         y="0"
         x="0"
         style="overflow:visible"
         id="use4050"
         overflow="visible"
         xlink:href="#SVGID_67_" /></clipPath><defs
       id="defs4028"><path
         inkscape:connector-curvature="0"
         d="m 39.473,76.287 c -4.003,-4.004 -6.202,-9.325 -6.202,-14.991 0,-3.432 0.831,-6.843 2.416,-9.853 1.531,-2.926 3.754,-5.483 6.438,-7.404 3.602,-2.579 7.862,-3.95 12.315,-3.95 1.424,0 2.847,0.14 4.228,0.42 0.68,0.13 1.122,0.8 0.981,1.479 -0.129,0.681 -0.798,1.123 -1.477,0.982 -1.218,-0.248 -2.48,-0.377 -3.732,-0.377 -3.916,0 -7.667,1.209 -10.85,3.486 -2.371,1.693 -4.335,3.949 -5.682,6.518 -1.403,2.656 -2.136,5.656 -2.136,8.678 0,4.986 1.941,9.681 5.468,13.211 3.527,3.529 8.217,5.471 13.199,5.471 0.702,0 1.262,0.562 1.262,1.264 0,0.701 -0.571,1.263 -1.262,1.263 -5.66,-0.002 -10.978,-2.215 -14.966,-6.197"
         id="SVGID_63_" /></defs><clipPath
       id="SVGID_64_"><use
         height="100%"
         width="100%"
         y="0"
         x="0"
         style="overflow:visible"
         id="use4032"
         overflow="visible"
         xlink:href="#SVGID_63_" /></clipPath><defs
       id="defs4010"><path
         inkscape:connector-curvature="0"
         d="m 42.491,73.233 c -3.202,-3.195 -4.963,-7.459 -4.963,-11.979 0,-2.742 0.672,-5.462 1.932,-7.869 1.219,-2.331 2.999,-4.382 5.146,-5.914 0.571,-0.399 1.356,-0.27 1.757,0.291 0.4,0.573 0.27,1.36 -0.292,1.759 -1.834,1.317 -3.344,3.055 -4.389,5.041 -1.079,2.051 -1.649,4.371 -1.649,6.702 0,7.954 6.459,14.43 14.407,14.43 0.701,0 1.261,0.562 1.261,1.263 0,0.702 -0.571,1.264 -1.261,1.264 -4.528,-0.002 -8.777,-1.762 -11.949,-4.988"
         id="SVGID_59_" /></defs><clipPath
       id="SVGID_60_"><use
         height="100%"
         width="100%"
         y="0"
         x="0"
         style="overflow:visible"
         id="use4014"
         overflow="visible"
         xlink:href="#SVGID_59_" /></clipPath><defs
       id="defs3992"><path
         inkscape:connector-curvature="0"
         d="m 204.232,81.267 c 0,2.152 -0.773,3.849 -2.322,5.089 -1.548,1.239 -3.702,1.858 -6.461,1.858 -2.543,0 -4.792,-0.478 -6.748,-1.435 l 0,-4.697 c 1.607,0.717 2.969,1.224 4.083,1.517 1.112,0.294 2.132,0.44 3.056,0.44 1.108,0 1.958,-0.212 2.55,-0.637 0.593,-0.424 0.889,-1.054 0.889,-1.892 0,-0.467 -0.131,-0.883 -0.392,-1.248 -0.26,-0.364 -0.644,-0.714 -1.149,-1.051 -0.504,-0.337 -1.534,-0.876 -3.088,-1.615 -1.456,-0.685 -2.547,-1.343 -3.275,-1.974 -0.728,-0.63 -1.309,-1.364 -1.745,-2.201 -0.434,-0.838 -0.65,-1.816 -0.65,-2.937 0,-2.108 0.715,-3.768 2.143,-4.975 1.429,-1.207 3.404,-1.811 5.924,-1.811 1.239,0 2.422,0.147 3.545,0.44 1.125,0.294 2.302,0.707 3.529,1.24 l -1.63,3.931 c -1.271,-0.522 -2.323,-0.887 -3.153,-1.093 -0.832,-0.206 -1.65,-0.31 -2.453,-0.31 -0.957,0 -1.689,0.222 -2.199,0.668 -0.512,0.446 -0.768,1.027 -0.768,1.745 0,0.446 0.104,0.835 0.311,1.167 0.206,0.331 0.535,0.652 0.984,0.961 0.451,0.311 1.52,0.868 3.203,1.673 2.229,1.065 3.755,2.134 4.58,3.204 0.824,1.075 1.236,2.388 1.236,3.943"
         id="SVGID_55_" /></defs><clipPath
       id="SVGID_56_"><use
         height="100%"
         width="100%"
         y="0"
         x="0"
         style="overflow:visible"
         id="use3996"
         overflow="visible"
         xlink:href="#SVGID_55_" /></clipPath><defs
       id="defs3974"><polygon
         points="168.004,64.043 173.057,64.043 173.057,74.955 175.044,72.15 181.498,64.043 187.104,64.043 178.793,74.596 187.169,87.889 181.434,87.889 175.191,77.842 173.057,79.375 173.057,87.889 168.004,87.889 "
         id="SVGID_51_" /></defs><clipPath
       id="SVGID_52_"><use
         height="100%"
         width="100%"
         y="0"
         x="0"
         style="overflow:visible"
         id="use3978"
         overflow="visible"
         xlink:href="#SVGID_51_" /></clipPath><defs
       id="defs3956"><path
         inkscape:connector-curvature="0"
         d="m 151.021,78.739 0,9.15 -5.051,0 0,-23.846 6.942,0 c 3.237,0 5.634,0.591 7.187,1.77 1.555,1.181 2.33,2.971 2.33,5.374 0,1.403 -0.385,2.651 -1.156,3.743 -0.771,1.093 -1.863,1.949 -3.276,2.569 3.586,5.36 5.923,8.823 7.009,10.39 l -5.606,0 -5.689,-9.15 -2.69,0 z m 0,-4.111 1.631,0 c 1.598,0 2.775,-0.267 3.537,-0.799 0.76,-0.533 1.141,-1.37 1.141,-2.512 0,-1.131 -0.389,-1.936 -1.166,-2.414 -0.777,-0.478 -1.98,-0.718 -3.609,-0.718 l -1.533,0 0,6.443 z"
         id="SVGID_47_" /></defs><clipPath
       id="SVGID_48_"><use
         height="100%"
         width="100%"
         y="0"
         x="0"
         style="overflow:visible"
         id="use3960"
         overflow="visible"
         xlink:href="#SVGID_47_" /></clipPath><defs
       id="defs3938"><path
         inkscape:connector-curvature="0"
         d="m 141.032,75.933 c 0,3.947 -0.978,6.981 -2.933,9.101 -1.956,2.121 -4.76,3.182 -8.41,3.182 -3.65,0 -6.454,-1.061 -8.41,-3.182 -1.955,-2.119 -2.932,-5.164 -2.932,-9.133 0,-3.969 0.98,-6.999 2.941,-9.093 1.962,-2.094 4.773,-3.14 8.434,-3.14 3.661,0 6.462,1.055 8.401,3.164 1.94,2.11 2.909,5.143 2.909,9.101 m -17.388,0 c 0,2.665 0.506,4.67 1.515,6.02 1.011,1.348 2.521,2.021 4.531,2.021 4.031,0 6.046,-2.68 6.046,-8.041 0,-5.37 -2.003,-8.057 -6.013,-8.057 -2.009,0 -3.526,0.677 -4.547,2.03 -1.021,1.355 -1.532,3.364 -1.532,6.027"
         id="SVGID_43_" /></defs><clipPath
       id="SVGID_44_"><use
         height="100%"
         width="100%"
         y="0"
         x="0"
         style="overflow:visible"
         id="use3942"
         overflow="visible"
         xlink:href="#SVGID_43_" /></clipPath><defs
       id="defs3920"><path
         inkscape:connector-curvature="0"
         d="m 110.345,87.889 -5.753,0 -3.227,-12.526 c -0.12,-0.445 -0.324,-1.367 -0.611,-2.765 -0.288,-1.396 -0.454,-2.335 -0.497,-2.813 -0.065,0.588 -0.228,1.53 -0.489,2.83 -0.261,1.299 -0.462,2.226 -0.604,2.78 l -3.21,12.494 -5.737,0 -6.079,-23.846 4.971,0 3.048,13.016 c 0.532,2.403 0.917,4.485 1.156,6.247 0.065,-0.62 0.214,-1.58 0.449,-2.879 0.233,-1.3 0.454,-2.309 0.659,-3.025 l 3.471,-13.358 4.776,0 3.471,13.358 c 0.153,0.598 0.343,1.511 0.57,2.739 0.229,1.229 0.402,2.283 0.522,3.165 0.108,-0.849 0.283,-1.905 0.522,-3.173 0.238,-1.267 0.456,-2.291 0.651,-3.074 l 3.031,-13.016 4.971,0 -6.061,23.846 z"
         id="SVGID_39_" /></defs><clipPath
       id="SVGID_40_"><use
         height="100%"
         width="100%"
         y="0"
         x="0"
         style="overflow:visible"
         id="use3924"
         overflow="visible"
         xlink:href="#SVGID_39_" /></clipPath><defs
       id="defs3902"><path
         inkscape:connector-curvature="0"
         d="m 219.15,49.443 0,10.391 -1.662,0 0,-23.847 5.67,0 c 2.955,0 5.139,0.547 6.553,1.64 1.412,1.093 2.119,2.737 2.119,4.934 0,1.599 -0.422,2.946 -1.264,4.045 -0.842,1.099 -2.122,1.887 -3.839,2.365 l 6.47,10.863 -1.986,0 -6.145,-10.391 -5.916,0 z m 0,-1.435 4.546,0 c 2.011,0 3.569,-0.449 4.679,-1.346 1.107,-0.897 1.66,-2.221 1.66,-3.972 0,-1.815 -0.543,-3.138 -1.629,-3.963 -1.087,-0.827 -2.857,-1.24 -5.312,-1.24 l -3.943,0 0,10.521 z"
         id="SVGID_35_" /></defs><clipPath
       id="SVGID_36_"><use
         height="100%"
         width="100%"
         y="0"
         x="0"
         style="overflow:visible"
         id="use3906"
         overflow="visible"
         xlink:href="#SVGID_35_" /></clipPath><defs
       id="defs3884"><path
         inkscape:connector-curvature="0"
         d="m 208.932,51.417 -9.681,0 -3.325,8.417 -1.841,0 9.583,-23.943 1.059,0 9.387,23.943 -1.873,0 -3.309,-8.417 z m -9.077,-1.5 8.523,0 -3.244,-8.596 c -0.271,-0.674 -0.598,-1.609 -0.979,-2.805 -0.293,1.044 -0.613,1.989 -0.962,2.837 l -3.338,8.564 z"
         id="SVGID_31_" /></defs><clipPath
       id="SVGID_32_"><use
         height="100%"
         width="100%"
         y="0"
         x="0"
         style="overflow:visible"
         id="use3888"
         overflow="visible"
         xlink:href="#SVGID_31_" /></clipPath><defs
       id="defs3866"><polygon
         points="193.352,58.266 193.352,59.833 180.33,59.833 180.33,35.987 181.992,35.987 181.992,58.266 "
         id="SVGID_27_" /></defs><clipPath
       id="SVGID_28_"><use
         height="100%"
         width="100%"
         y="0"
         x="0"
         style="overflow:visible"
         id="use3870"
         overflow="visible"
         xlink:href="#SVGID_27_" /></clipPath><defs
       id="defs3848"><path
         inkscape:connector-curvature="0"
         d="m 173.844,35.987 0,15.43 c 0,2.74 -0.793,4.883 -2.379,6.427 -1.587,1.544 -3.797,2.315 -6.633,2.315 -2.76,0 -4.914,-0.774 -6.463,-2.324 -1.549,-1.549 -2.322,-3.71 -2.322,-6.483 l 0,-15.365 1.68,0 0,15.43 c 0,2.294 0.635,4.081 1.906,5.357 1.271,1.278 3.068,1.917 5.395,1.917 2.271,0 4.03,-0.628 5.279,-1.884 1.25,-1.256 1.875,-2.998 1.875,-5.228 l 0,-15.592 1.662,0 z"
         id="SVGID_23_" /></defs><clipPath
       id="SVGID_24_"><use
         height="100%"
         width="100%"
         y="0"
         x="0"
         style="overflow:visible"
         id="use3852"
         overflow="visible"
         xlink:href="#SVGID_23_" /></clipPath><defs
       id="defs3830"><path
         inkscape:connector-curvature="0"
         d="m 145.764,37.146 c -2.988,0 -5.34,0.956 -7.057,2.87 -1.717,1.914 -2.574,4.534 -2.574,7.861 0,3.403 0.809,6.045 2.428,7.927 1.619,1.882 3.934,2.821 6.943,2.821 1.998,0 3.836,-0.255 5.509,-0.767 l 0,1.468 c -1.576,0.555 -3.542,0.832 -5.901,0.832 -3.346,0 -5.98,-1.081 -7.902,-3.245 -1.924,-2.164 -2.885,-5.187 -2.885,-9.068 0,-2.425 0.459,-4.562 1.377,-6.41 0.918,-1.848 2.238,-3.275 3.959,-4.282 1.723,-1.005 3.725,-1.508 6.007,-1.508 2.323,0 4.405,0.435 6.241,1.305 l -0.668,1.5 c -1.739,-0.869 -3.565,-1.304 -5.477,-1.304"
         id="SVGID_19_" /></defs><clipPath
       id="SVGID_20_"><use
         height="100%"
         width="100%"
         y="0"
         x="0"
         style="overflow:visible"
         id="use3834"
         overflow="visible"
         xlink:href="#SVGID_19_" /></clipPath><defs
       id="defs3812"><path
         inkscape:connector-curvature="0"
         d="m 117.423,49.443 0,10.391 -1.662,0 0,-23.847 5.672,0 c 2.955,0 5.139,0.547 6.551,1.64 1.412,1.093 2.118,2.737 2.118,4.934 0,1.599 -0.421,2.946 -1.263,4.045 -0.841,1.099 -2.121,1.887 -3.837,2.365 l 6.469,10.863 -1.988,0 -6.144,-10.391 -5.916,0 z m 0,-1.435 4.547,0 c 2.011,0 3.569,-0.449 4.678,-1.346 1.108,-0.897 1.662,-2.221 1.662,-3.972 0,-1.815 -0.544,-3.138 -1.63,-3.963 -1.086,-0.827 -2.858,-1.24 -5.313,-1.24 l -3.944,0 0,10.521 z"
         id="SVGID_15_" /></defs><clipPath
       id="SVGID_16_"><use
         height="100%"
         width="100%"
         y="0"
         x="0"
         style="overflow:visible"
         id="use3816"
         overflow="visible"
         xlink:href="#SVGID_15_" /></clipPath><defs
       id="defs3794"><rect
         height="23.846001"
         width="1.6619999"
         y="35.987999"
         x="107.352"
         id="SVGID_11_" /></defs><clipPath
       id="SVGID_12_"><use
         height="100%"
         width="100%"
         y="0"
         x="0"
         style="overflow:visible"
         id="use3798"
         overflow="visible"
         xlink:href="#SVGID_11_" /></clipPath></defs><sodipodi:namedview
     pagecolor="#ffffff"
     bordercolor="#666666"
     borderopacity="1"
     objecttolerance="10"
     gridtolerance="10"
     guidetolerance="10"
     inkscape:pageopacity="0"
     inkscape:pageshadow="2"
     inkscape:window-width="2048"
     inkscape:window-height="1115"
     id="namedview4098"
     showgrid="false"
     inkscape:zoom="2.6928135"
     inkscape:cx="69.301388"
     inkscape:cy="67.906508"
     inkscape:window-x="1920"
     inkscape:window-y="0"
     inkscape:window-maximized="1"
     inkscape:current-layer="Capa_1" /><g
     id="g3748"
     transform="translate(-27.109192,-21.251031)"><defs
       id="defs3750"><path
         id="SVGID_1_"
         d="m 96.791,37.146 c -2.988,0 -5.339,0.956 -7.056,2.87 -1.717,1.914 -2.575,4.534 -2.575,7.861 0,3.403 0.809,6.045 2.428,7.927 1.619,1.882 3.933,2.821 6.942,2.821 1.999,0 3.836,-0.255 5.509,-0.767 l 0,1.468 c -1.576,0.555 -3.542,0.832 -5.9,0.832 -3.347,0 -5.981,-1.081 -7.904,-3.245 -1.923,-2.164 -2.884,-5.187 -2.884,-9.068 0,-2.425 0.459,-4.562 1.377,-6.41 0.918,-1.849 2.239,-3.275 3.96,-4.282 1.722,-1.005 3.724,-1.508 6.006,-1.508 2.323,0 4.405,0.435 6.241,1.305 l -0.668,1.5 c -1.738,-0.869 -3.563,-1.304 -5.476,-1.304 z"
         inkscape:connector-curvature="0" /></defs><clipPath
       id="SVGID_2_"><use
         xlink:href="#SVGID_1_"
         overflow="visible"
         id="use3754"
         style="overflow:visible"
         x="0"
         y="0"
         width="100%"
         height="100%" /></clipPath><g
       clip-path="url(#SVGID_2_)"
       id="g3756"><defs
         id="defs3758"><rect
           id="SVGID_3_"
           x="-47.979"
           y="-8.3549995"
           width="360"
           height="640" /></defs><clipPath
         id="SVGID_4_"><use
           xlink:href="#SVGID_3_"
           overflow="visible"
           id="use3762"
           style="overflow:visible"
           x="0"
           y="0"
           width="100%"
           height="100%" /></clipPath><rect
         x="80.350998"
         y="30.645"
         clip-path="url(#SVGID_4_)"
         width="27.584"
         height="34.514"
         id="rect3764"
         style="fill:#006f8b" /></g></g><g
     id="g3800"
     clip-path="url(#SVGID_12_)"
     transform="translate(-27.109192,-21.251031)"><defs
       id="defs3802"><rect
         height="53"
         width="205"
         y="35.645"
         x="29.021"
         id="SVGID_13_" /></defs><clipPath
       id="SVGID_14_"><use
         height="100%"
         width="100%"
         y="0"
         x="0"
         style="overflow:visible"
         id="use3806"
         overflow="visible"
         xlink:href="#SVGID_13_" /></clipPath><rect
       style="fill:#006f8b"
       id="rect3808"
       height="33.846001"
       width="11.662"
       clip-path="url(#SVGID_14_)"
       y="30.988001"
       x="102.352" /></g><g
     id="g3818"
     clip-path="url(#SVGID_16_)"
     transform="translate(-27.109192,-21.251031)"><defs
       id="defs3820"><rect
         height="53"
         width="205"
         y="35.645"
         x="29.021"
         id="SVGID_17_" /></defs><clipPath
       id="SVGID_18_"><use
         height="100%"
         width="100%"
         y="0"
         x="0"
         style="overflow:visible"
         id="use3824"
         overflow="visible"
         xlink:href="#SVGID_17_" /></clipPath><rect
       style="fill:#006f8b"
       id="rect3826"
       height="33.847"
       width="25.709"
       clip-path="url(#SVGID_18_)"
       y="30.987"
       x="110.761" /></g><g
     id="g3836"
     clip-path="url(#SVGID_20_)"
     transform="translate(-27.109192,-21.251031)"><defs
       id="defs3838"><rect
         height="53"
         width="205"
         y="35.645"
         x="29.021"
         id="SVGID_21_" /></defs><clipPath
       id="SVGID_22_"><use
         height="100%"
         width="100%"
         y="0"
         x="0"
         style="overflow:visible"
         id="use3842"
         overflow="visible"
         xlink:href="#SVGID_21_" /></clipPath><rect
       style="fill:#006f8b"
       id="rect3844"
       height="34.514"
       width="27.584"
       clip-path="url(#SVGID_22_)"
       y="30.645"
       x="129.32401" /></g><g
     id="g3854"
     clip-path="url(#SVGID_24_)"
     transform="translate(-27.109192,-21.251031)"><defs
       id="defs3856"><rect
         height="53"
         width="205"
         y="35.645"
         x="29.021"
         id="SVGID_25_" /></defs><clipPath
       id="SVGID_26_"><use
         height="100%"
         width="100%"
         y="0"
         x="0"
         style="overflow:visible"
         id="use3860"
         overflow="visible"
         xlink:href="#SVGID_25_" /></clipPath><rect
       style="fill:#006f8b"
       id="rect3862"
       height="34.172001"
       width="27.797001"
       clip-path="url(#SVGID_26_)"
       y="30.987"
       x="151.047" /></g><g
     id="g3872"
     clip-path="url(#SVGID_28_)"
     transform="translate(-27.109192,-21.251031)"><defs
       id="defs3874"><rect
         height="53"
         width="205"
         y="35.645"
         x="29.021"
         id="SVGID_29_" /></defs><clipPath
       id="SVGID_30_"><use
         height="100%"
         width="100%"
         y="0"
         x="0"
         style="overflow:visible"
         id="use3878"
         overflow="visible"
         xlink:href="#SVGID_29_" /></clipPath><rect
       style="fill:#006f8b"
       id="rect3880"
       height="33.846001"
       width="23.021"
       clip-path="url(#SVGID_30_)"
       y="30.987"
       x="175.33" /></g><g
     id="g3890"
     clip-path="url(#SVGID_32_)"
     transform="translate(-27.109192,-21.251031)"><defs
       id="defs3892"><rect
         height="53"
         width="205"
         y="35.645"
         x="29.021"
         id="SVGID_33_" /></defs><clipPath
       id="SVGID_34_"><use
         height="100%"
         width="100%"
         y="0"
         x="0"
         style="overflow:visible"
         id="use3896"
         overflow="visible"
         xlink:href="#SVGID_33_" /></clipPath><rect
       style="fill:#006f8b"
       id="rect3898"
       height="33.943001"
       width="30.028"
       clip-path="url(#SVGID_34_)"
       y="30.889999"
       x="189.08501" /></g><g
     id="g3908"
     clip-path="url(#SVGID_36_)"
     transform="translate(-27.109192,-21.251031)"><defs
       id="defs3910"><rect
         height="53"
         width="205"
         y="35.645"
         x="29.021"
         id="SVGID_37_" /></defs><clipPath
       id="SVGID_38_"><use
         height="100%"
         width="100%"
         y="0"
         x="0"
         style="overflow:visible"
         id="use3914"
         overflow="visible"
         xlink:href="#SVGID_37_" /></clipPath><rect
       style="fill:#006f8b"
       id="rect3916"
       height="33.847"
       width="25.709"
       clip-path="url(#SVGID_38_)"
       y="30.987"
       x="212.48801" /></g><g
     id="g3926"
     clip-path="url(#SVGID_40_)"
     transform="translate(127.93311,-48.917265)"><defs
       id="defs3928"><rect
         height="53"
         width="205"
         y="35.645"
         x="29.021"
         id="SVGID_41_" /></defs><clipPath
       id="SVGID_42_"><use
         height="100%"
         width="100%"
         y="0"
         x="0"
         style="overflow:visible"
         id="use3932"
         overflow="visible"
         xlink:href="#SVGID_41_" /></clipPath><rect
       style="fill:#006f8b"
       id="rect3934"
       height="33.846001"
       width="42.269001"
       clip-path="url(#SVGID_42_)"
       y="59.042999"
       x="79.139" /></g><g
     id="g3944"
     clip-path="url(#SVGID_44_)"
     transform="translate(127.93311,-48.917265)"><defs
       id="defs3946"><rect
         height="53"
         width="205"
         y="35.645"
         x="29.021"
         id="SVGID_45_" /></defs><clipPath
       id="SVGID_46_"><use
         height="100%"
         width="100%"
         y="0"
         x="0"
         style="overflow:visible"
         id="use3950"
         overflow="visible"
         xlink:href="#SVGID_45_" /></clipPath><rect
       style="fill:#006f8b"
       id="rect3952"
       height="34.547001"
       width="32.685001"
       clip-path="url(#SVGID_46_)"
       y="58.667999"
       x="113.347" /></g><g
     id="g3962"
     clip-path="url(#SVGID_48_)"
     transform="translate(127.93311,-48.917265)"><defs
       id="defs3964"><rect
         height="53"
         width="205"
         y="35.645"
         x="29.021"
         id="SVGID_49_" /></defs><clipPath
       id="SVGID_50_"><use
         height="100%"
         width="100%"
         y="0"
         x="0"
         style="overflow:visible"
         id="use3968"
         overflow="visible"
         xlink:href="#SVGID_49_" /></clipPath><rect
       style="fill:#006f8b"
       id="rect3970"
       height="33.846001"
       width="29.035"
       clip-path="url(#SVGID_50_)"
       y="59.042999"
       x="140.97099" /></g><g
     id="g3980"
     clip-path="url(#SVGID_52_)"
     transform="translate(127.93311,-48.917265)"><defs
       id="defs3982"><rect
         height="53"
         width="205"
         y="35.645"
         x="29.021"
         id="SVGID_53_" /></defs><clipPath
       id="SVGID_54_"><use
         height="100%"
         width="100%"
         y="0"
         x="0"
         style="overflow:visible"
         id="use3986"
         overflow="visible"
         xlink:href="#SVGID_53_" /></clipPath><rect
       style="fill:#006f8b"
       id="rect3988"
       height="33.846001"
       width="29.165001"
       clip-path="url(#SVGID_54_)"
       y="59.042999"
       x="163.004" /></g><g
     id="g4016"
     clip-path="url(#SVGID_60_)"
     transform="translate(-28.037589,-34.062917)"><defs
       id="defs4018"><rect
         height="53"
         width="205"
         y="35.645"
         x="29.021"
         id="SVGID_61_" /></defs><clipPath
       id="SVGID_62_"><use
         height="100%"
         width="100%"
         y="0"
         x="0"
         style="overflow:visible"
         id="use4022"
         overflow="visible"
         xlink:href="#SVGID_61_" /></clipPath><rect
       style="fill:#006f8b"
       id="rect4024"
       height="40.98"
       width="28.173"
       clip-path="url(#SVGID_62_)"
       y="42.238998"
       x="32.528" /></g><g
     id="g4034"
     clip-path="url(#SVGID_64_)"
     transform="translate(-28.037589,-34.062917)"><defs
       id="defs4036"><rect
         height="53"
         width="205"
         y="35.645"
         x="29.021"
         id="SVGID_65_" /></defs><clipPath
       id="SVGID_66_"><use
         height="100%"
         width="100%"
         y="0"
         x="0"
         style="overflow:visible"
         id="use4040"
         overflow="visible"
         xlink:href="#SVGID_65_" /></clipPath><rect
       style="fill:#006f8b"
       id="rect4042"
       height="52.394001"
       width="36.403999"
       clip-path="url(#SVGID_66_)"
       y="35.088001"
       x="28.271" /></g><g
     id="g4052"
     clip-path="url(#SVGID_68_)"
     transform="translate(-28.037589,-34.062917)"><defs
       id="defs4054"><rect
         height="53"
         width="205"
         y="35.645"
         x="29.021"
         id="SVGID_69_" /></defs><clipPath
       id="SVGID_70_"><use
         height="100%"
         width="100%"
         y="0"
         x="0"
         style="overflow:visible"
         id="use4058"
         overflow="visible"
         xlink:href="#SVGID_69_" /></clipPath><rect
       style="fill:#006f8b"
       id="rect4060"
       height="60.974998"
       width="60.912998"
       clip-path="url(#SVGID_70_)"
       y="30.782"
       x="24.021" /></g><g
     id="g4070"
     clip-path="url(#SVGID_72_)"
     transform="translate(-28.037589,-34.062917)"><defs
       id="defs4072"><rect
         height="53"
         width="205"
         y="35.645"
         x="29.021"
         id="SVGID_73_" /></defs><clipPath
       id="SVGID_74_"><use
         height="100%"
         width="100%"
         y="0"
         x="0"
         style="overflow:visible"
         id="use4076"
         overflow="visible"
         xlink:href="#SVGID_73_" /></clipPath><rect
       style="fill:#006f8b"
       id="rect4078"
       height="10.076"
       width="10.097"
       clip-path="url(#SVGID_74_)"
       y="55.938999"
       x="49.43" /></g><g
     id="g4088"
     clip-path="url(#SVGID_76_)"
     transform="translate(-28.037589,-34.062917)"><defs
       id="defs4090"><rect
         height="53"
         width="205"
         y="35.645"
         x="29.021"
         id="SVGID_77_" /></defs><clipPath
       id="SVGID_78_"><use
         height="100%"
         width="100%"
         y="0"
         x="0"
         style="overflow:visible"
         id="use4094"
         overflow="visible"
         xlink:href="#SVGID_77_" /></clipPath><rect
       style="fill:#e74f3a"
       id="rect4096"
       height="25.299"
       width="28.726"
       clip-path="url(#SVGID_78_)"
       y="47.386002"
       x="41.338001" /></g></svg>